<svg xmlns="http://www.w3.org/2000/svg" width="349.032" height="78.053" viewBox="0 0 349.032 78.053"><path fill="#F9B118" d="M54.06 49.803c-8.704-2.356-14.109-10.845-12.569-19.739a.735.735 0 0 0-.57-.845l-12.5-2.686a.74.74 0 0 0-.88.582c-3.136 16.491 7.172 32.58 23.467 36.616.003.005.012.009.019.009a.756.756 0 0 0 .546-.095.773.773 0 0 0 .332-.472l2.687-12.499a.747.747 0 0 0-.532-.871"/><path fill="#678181" d="M27.077 54.038a17.312 17.312 0 0 1-12.569-19.739.738.738 0 0 0-.57-.851l-12.497-2.68a.742.742 0 0 0-.563.106.723.723 0 0 0-.315.475c-3.141 16.494 7.167 32.58 23.464 36.616.006.003.012.003.021.003a.73.73 0 0 0 .876-.565l2.686-12.497a.74.74 0 0 0-.533-.868"/><path fill="#B02025" d="M42.812 4.256c-.007 0-.015-.005-.021-.01a.75.75 0 0 0-.88.568l-2.683 12.498a.74.74 0 0 0 .53.87c8.705 2.36 14.109 10.849 12.568 19.74a.74.74 0 0 0 .574.848l12.494 2.683a.7.7 0 0 0 .565-.107.73.73 0 0 0 .316-.474c3.138-16.498-7.169-32.58-23.463-36.616"/><path fill="#B19F7C" d="M69.792.02c-.004 0-.013 0-.023-.003a.741.741 0 0 0-.545.094.769.769 0 0 0-.332.473L66.21 13.082a.74.74 0 0 0 .53.868c8.704 2.36 14.105 10.849 12.569 19.739a.737.737 0 0 0 .574.85l12.491 2.678a.73.73 0 0 0 .882-.579C96.395 20.142 86.085 4.059 69.792.02"/><path fill="#404549" d="M113.043 20.351h26.741v5.689H120.96v9.818h15.498l-.998 5.753h-14.5v11.587h19.821v5.692h-27.737V20.351zm52.417 14.447a14.678 14.678 0 0 0-2.028-1.833c-.689-.506-1.609-.759-2.762-.759-.665 0-1.408.095-2.229.285-.82.188-1.585.653-2.295 1.39-.709.739-1.296 1.824-1.762 3.257-.466 1.433-.699 3.373-.699 5.817 0 2.488.233 4.457.699 5.911.465 1.455 1.064 2.584 1.795 3.384.731.801 1.52 1.318 2.361 1.548a9.216 9.216 0 0 0 2.461.349c.621 0 1.265-.052 1.93-.158a25.063 25.063 0 0 0 1.93-.379c.62-.148 1.164-.284 1.631-.411.465-.126.807-.23 1.029-.315l1.862 4.551c-.132.044-.431.17-.896.381-.466.212-1.099.422-1.897.632-.797.212-1.752.412-2.859.601-1.11.19-2.353.284-3.726.284-2.571 0-4.768-.369-6.586-1.105-1.818-.737-3.315-1.78-4.49-3.131-1.174-1.349-2.04-2.971-2.594-4.869-.555-1.896-.832-4.002-.832-6.322 0-2.782.388-5.248 1.165-7.397.776-2.15 1.851-3.952 3.226-5.406a13.736 13.736 0 0 1 4.856-3.319c1.862-.76 3.858-1.14 5.986-1.14 2.084 0 3.848.38 5.289 1.14a11.036 11.036 0 0 1 3.691 3.16l-4.256 3.854zm18.225-3.352c1.286-1.601 2.828-2.76 4.623-3.478a15.222 15.222 0 0 1 5.688-1.075c3.415 0 5.887.981 7.418 2.941 1.528 1.96 2.296 4.604 2.296 7.936v21.12h-7.585V38.275c0-1.77-.333-3.171-.998-4.204s-1.796-1.551-3.392-1.551c-.932 0-1.874.233-2.825.697-.955.464-1.82 1.128-2.597 1.991-.775.865-1.407 1.887-1.895 3.066-.489 1.182-.733 2.489-.733 3.921v16.694h-7.581v-43.35l7.581-1.266v17.173zm53.948-.506c2.306 2.867 3.459 6.808 3.459 11.825 0 2.36-.312 4.563-.931 6.608-.622 2.043-1.563 3.813-2.827 5.311-1.265 1.496-2.852 2.677-4.759 3.541-1.906.862-4.123 1.297-6.65 1.297s-4.713-.37-6.552-1.107c-1.841-.738-3.359-1.803-4.557-3.192-1.197-1.392-2.074-3.077-2.626-5.058-.557-1.983-.833-4.216-.833-6.703 0-2.403.309-4.628.932-6.67.62-2.046 1.562-3.816 2.826-5.313 1.266-1.496 2.849-2.676 4.756-3.54 1.906-.864 4.125-1.298 6.653-1.298 5.101 0 8.803 1.433 11.109 4.299m-14.934 1.834c-.82.548-1.462 1.318-1.929 2.309-.465.991-.788 2.149-.964 3.478a32.024 32.024 0 0 0-.266 4.267c0 1.562.099 3.036.298 4.428.2 1.391.565 2.602 1.099 3.635.532 1.035 1.253 1.846 2.161 2.436.908.591 2.072.886 3.492.886 1.286 0 2.339-.274 3.16-.823.819-.547 1.464-1.315 1.93-2.308.466-.989.785-2.139.965-3.445.176-1.307.265-2.719.265-4.238 0-1.558-.1-3.032-.299-4.425-.199-1.391-.566-2.612-1.098-3.667-.533-1.055-1.254-1.876-2.161-2.467-.91-.589-2.074-.884-3.492-.884-1.287-.002-2.341.271-3.161.818m36.154-6.133c1.285 0 2.55.126 3.791.38 1.241.253 2.352.549 3.326.886 1.153.379 2.218.78 3.194 1.201l-2.262 4.933a34.082 34.082 0 0 0-2.662-1.011 35.13 35.13 0 0 0-2.495-.729 10.9 10.9 0 0 0-2.693-.347c-1.02 0-1.896.23-2.627.693-.733.467-1.099 1.16-1.099 2.087 0 2.403 1.84 4.279 5.521 5.63a33.197 33.197 0 0 1 3.726 1.611c1.108.568 2.052 1.232 2.826 1.991s1.363 1.634 1.765 2.624c.398.991.598 2.16.598 3.509 0 1.18-.257 2.34-.766 3.479-.509 1.138-1.264 2.148-2.261 3.034-.998.887-2.219 1.592-3.659 2.119-1.442.525-3.071.791-4.889.791-1.463 0-2.905-.159-4.324-.476a37.962 37.962 0 0 1-3.825-1.043c-1.13-.38-2.029-.737-2.694-1.075l-.997-.442 2.46-5.312.866.443c.576.337 1.307.694 2.195 1.073a28.76 28.76 0 0 0 2.859 1.045c1.02.315 1.951.475 2.793.475 1.553 0 2.706-.295 3.461-.886.752-.59 1.129-1.37 1.129-2.34 0-1.096-.41-2.097-1.229-3.004-.82-.906-2.051-1.653-3.691-2.243-3.416-1.224-5.865-2.614-7.351-4.174s-2.229-3.582-2.229-6.07c0-1.181.288-2.309.864-3.384.576-1.074 1.364-2.022 2.362-2.845s2.184-1.463 3.559-1.928c1.376-.464 2.861-.695 4.458-.695m18.192 9.8c.82-2.149 1.951-3.95 3.393-5.405a14.07 14.07 0 0 1 5.089-3.287c1.95-.738 4.057-1.108 6.32-1.108 1.995 0 3.69.231 5.087.697 1.398.465 2.539 1.096 3.425 1.896a7.343 7.343 0 0 1 1.964 2.846 9.81 9.81 0 0 1 .632 3.54c0 1.518-.444 2.962-1.33 4.331-.891 1.37-2.162 2.571-3.825 3.605-1.662 1.033-3.669 1.854-6.02 2.466-2.352.611-4.99.938-7.916.979.132.971.344 1.887.631 2.751a6.776 6.776 0 0 0 1.265 2.275c.553.654 1.274 1.17 2.162 1.55.886.38 1.995.568 3.325.568.976 0 2.019-.104 3.127-.315 1.107-.21 2.13-.463 3.06-.759a42.662 42.662 0 0 0 3.26-1.138l1.996 4.489a29.256 29.256 0 0 1-3.725 1.454 34.214 34.214 0 0 1-3.992 1.013c-1.51.295-3.105.44-4.79.44-2.572 0-4.767-.369-6.585-1.105-1.818-.737-3.303-1.78-4.457-3.131-1.154-1.349-1.995-2.971-2.527-4.869-.532-1.896-.8-4.002-.8-6.322-.001-2.822.41-5.31 1.231-7.461m10.576-3.887a7.388 7.388 0 0 0-2.294 2.529c-.577 1.033-.987 2.192-1.231 3.478a25.192 25.192 0 0 0-.43 3.89c2.126-.085 3.934-.349 5.42-.792 1.484-.443 2.694-.988 3.625-1.644.932-.652 1.606-1.359 2.03-2.117.419-.76.63-1.518.63-2.277 0-1.224-.377-2.201-1.13-2.94-.754-.738-1.753-1.107-2.994-1.107-1.463-.002-2.672.326-3.626.98m40.943 2.244a14.678 14.678 0 0 0-2.028-1.833c-.688-.506-1.608-.759-2.761-.759-.667 0-1.408.095-2.229.285-.82.188-1.585.653-2.295 1.39-.708.739-1.296 1.824-1.763 3.257-.465 1.433-.698 3.373-.698 5.817 0 2.488.233 4.457.698 5.911.467 1.455 1.065 2.584 1.798 3.384.73.801 1.517 1.318 2.359 1.548a9.223 9.223 0 0 0 2.462.349c.62 0 1.265-.052 1.931-.158a25.105 25.105 0 0 0 1.928-.379c.62-.148 1.164-.284 1.629-.411.468-.126.81-.23 1.03-.315l1.864 4.551c-.132.044-.432.17-.899.381-.464.212-1.097.422-1.895.632-.798.212-1.753.412-2.86.601-1.109.19-2.352.284-3.727.284-2.57 0-4.767-.369-6.584-1.105-1.819-.737-3.317-1.78-4.49-3.131-1.176-1.349-2.04-2.971-2.596-4.869-.554-1.896-.83-4.002-.83-6.322 0-2.782.388-5.248 1.164-7.397.774-2.15 1.851-3.952 3.227-5.406a13.714 13.714 0 0 1 4.855-3.319c1.862-.76 3.859-1.14 5.986-1.14 2.084 0 3.848.38 5.289 1.14 1.441.759 2.672 1.812 3.692 3.16l-4.257 3.854zm11.053-11.14v6.923h-1.239v-6.923h-1.731v-1.014h4.687v1.014h-1.717zm8.175 6.923v-5.235l-1.629 4.39h-.764l-1.602-4.284v5.13h-1.24v-7.937h1.168l2.077 5.219 2.062-5.219h1.167v7.937h-1.239z"/><text transform="translate(105.914 58.352)" fill="none" font-family="'ArialMT'" font-size="60.669">Echosec</text></svg>