<svg xmlns="http://www.w3.org/2000/svg" width="256" height="256" viewBox="-81.091 -94.007 256 256"><path fill="#F9B118" d="M66.422 77.133c-23.751-6.428-38.499-29.592-34.297-53.861a2.006 2.006 0 0 0-1.556-2.306L-3.54 13.637a2.018 2.018 0 0 0-2.394 1.555l-.007.034c-8.558 44.999 19.57 88.898 64.034 99.914a.08.08 0 0 0 .052.024 2.073 2.073 0 0 0 1.491-.259c.456-.298.781-.759.904-1.29l7.333-34.105a2.04 2.04 0 0 0-1.451-2.377"/><path fill="#678181" d="M-7.207 88.689C-30.88 82.35-45.773 58.961-41.505 34.827a2.012 2.012 0 0 0-1.555-2.321l-34.101-7.313a2.026 2.026 0 0 0-1.536.289 1.974 1.974 0 0 0-.86 1.296C-88.128 71.784-60 115.677-15.531 126.692c.017.008.033.008.057.008a1.994 1.994 0 0 0 2.39-1.541l7.329-34.101a2.015 2.015 0 0 0-1.452-2.369"/><path fill="#B02025" d="M35.729-47.151c-.018 0-.041-.014-.057-.027a2.046 2.046 0 0 0-2.401 1.549L25.95-11.525a2.02 2.02 0 0 0 1.446 2.375c23.753 6.439 38.5 29.604 34.295 53.864a2.018 2.018 0 0 0 1.566 2.313l34.093 7.322a1.916 1.916 0 0 0 1.542-.291c.45-.299.762-.765.862-1.295 8.562-45.017-19.563-88.901-64.025-99.914"/><path fill="#B19F7C" d="M109.35-58.709c-.011 0-.036 0-.062-.008a2.015 2.015 0 0 0-1.487.256 2.103 2.103 0 0 0-.906 1.291l-7.318 34.104a2.02 2.02 0 0 0 1.447 2.369c23.75 6.44 38.488 29.603 34.297 53.861a2.01 2.01 0 0 0 1.565 2.32l34.084 7.306a1.992 1.992 0 0 0 2.406-1.578c8.565-45.014-19.568-88.9-64.026-99.921"/></svg>