<?xml version="1.0" encoding="utf-8"?>
<!-- Generator: Adobe Illustrator 18.0.0, SVG Export Plug-In . SVG Version: 6.00 Build 0)  -->
<!DOCTYPE svg PUBLIC "-//W3C//DTD SVG 1.1//EN" "http://www.w3.org/Graphics/SVG/1.1/DTD/svg11.dtd">
<svg version="1.1" id="Layer_1" xmlns="http://www.w3.org/2000/svg" xmlns:xlink="http://www.w3.org/1999/xlink" x="0px" y="0px"
	 viewBox="165.5 0 177.8 177.8" enable-background="new 165.5 0 177.8 177.8" xml:space="preserve">
<g>
	<polyline fill="#FFFFFF" points="208.8,137.8 198.8,137.8 198.8,136.3 208.7,136.3 	"/>
	<polyline fill="#FFFFFF" points="299.6,136.3 310.2,136.3 310.2,137.8 299.7,137.8 	"/>
	<path fill="#FFFFFF" d="M206.3,46.2c-0.7,0.3-1.8,0.6-4,0.7c0.7-1.3,2-3.4,1.9-5.8c0.7,0.5,1.4,0.9,2,1.1
		C206.5,43.7,206.5,45,206.3,46.2z"/>
	<path fill="#FFFFFF" d="M232.1,43.5c-4.2-0.4-6-1.3-7.8-2.2c-10.8,0.1-14.1-2.9-15.4-3.6c-1.9-0.9-4.1-3.8-5-6.5
		c0-0.1-0.1-0.2-0.1-0.3c0-0.1,0-0.2-0.1-0.2c-0.6-2.2-0.2-4.1,2.1-4.6c5.3-1.1,9.5,5.7,8.7,8.6c-0.5-1.9-1.7-3.4-4.4-5.4
		c-2.1-1.5-5.9-1.4-5.4,1.1c0,0.1,0,0.1,0,0.2c0,0.1,0.1,0.2,0.1,0.2c0.2,0.6,0.6,1.2,1.3,2c4.5,5.3,10.5,3.4,12.9,2.7
		c-2.1,2.4-4.1,2.2-6.2,2.1c4.9,2.4,9.1,0.5,11.2-0.9c-0.3,1-0.9,1.5-2,2.5c2.1,0,6.1-0.1,9.3-1.2c-3.8-0.1-11.7-4.4-15.2-7.8
		c-3.6-3.5-3.7-4.4-8.5-7.2c-0.3-9.8-6.7-8.8-8.7-7.3c-1.6,1.3-3.7,2.8-3.7,2.8c2.8,1.9,4.3,2.9,4.5,6.6c0.7,14.7,6.2,14.1,8.8,15.7
		c0.2,7.9-1.8,10-3.3,12.6c4.8-1.6,5.2-4.6,6.3-6.9c1,4.8,2.5,5.9,4.9,7.1c-0.6-1.2-3-8.9-1.8-12.1c2.1,0.4,9.7,7.3,12.5,12.1
		c0.6-6-2.1-7.4-3.2-9.1C225,45.3,230.1,45.7,232.1,43.5z M199.5,19c0,0-1.1-0.7-1.5-0.5c0,0-0.1-0.1,0.1-0.2
		c0.1-0.1,0.3-0.1,0.6-0.3c0.1-0.1,0.2-0.1,0.2-0.2c0.7,0.4,2.2,0.8,3,0.2c-1,0.2-2-0.4-2.4-0.7c1.3-0.8,3-1.1,4.4,0.8
		c-0.6,0.4-0.8,0.5-1.3,0.7C202.3,19.1,201,19.9,199.5,19z M219.2,30c0.2,0.2,0.4,0.4,0.7,0.6c0.5,0.4,1.9,1.4,3.8,2.5
		c0.6-0.1,2.5-0.7,5-3.2C225.3,30.8,220.6,30.2,219.2,30z M219.2,30c0.2,0.2,0.4,0.4,0.7,0.6c0.5,0.4,1.9,1.4,3.8,2.5
		c0.6-0.1,2.5-0.7,5-3.2C225.3,30.8,220.6,30.2,219.2,30z M232.1,43.5c-4.2-0.4-6-1.3-7.8-2.2c-10.8,0.1-14.1-2.9-15.4-3.6
		c-1.9-0.9-4.1-3.8-5-6.5c0-0.1-0.1-0.2-0.1-0.3c0-0.1,0-0.2-0.1-0.2c-0.6-2.2-0.2-4.1,2.1-4.6c5.3-1.1,9.5,5.7,8.7,8.6
		c-0.5-1.9-1.7-3.4-4.4-5.4c-2.1-1.5-5.9-1.4-5.4,1.1c0,0.1,0,0.1,0,0.2c0,0.1,0.1,0.2,0.1,0.2c0.2,0.6,0.6,1.2,1.3,2
		c4.5,5.3,10.5,3.4,12.9,2.7c-2.1,2.4-4.1,2.2-6.2,2.1c4.9,2.4,9.1,0.5,11.2-0.9c-0.3,1-0.9,1.5-2,2.5c2.1,0,6.1-0.1,9.3-1.2
		c-3.8-0.1-11.7-4.4-15.2-7.8c-3.6-3.5-3.7-4.4-8.5-7.2c-0.3-9.8-6.7-8.8-8.7-7.3c-1.6,1.3-3.7,2.8-3.7,2.8c2.8,1.9,4.3,2.9,4.5,6.6
		c0.7,14.7,6.2,14.1,8.8,15.7c0.2,7.9-1.8,10-3.3,12.6c4.8-1.6,5.2-4.6,6.3-6.9c1,4.8,2.5,5.9,4.9,7.1c-0.6-1.2-3-8.9-1.8-12.1
		c2.1,0.4,9.7,7.3,12.5,12.1c0.6-6-2.1-7.4-3.2-9.1C225,45.3,230.1,45.7,232.1,43.5z M199.5,19c0,0-1.1-0.7-1.5-0.5
		c0,0-0.1-0.1,0.1-0.2c0.1-0.1,0.3-0.1,0.6-0.3c0.1-0.1,0.2-0.1,0.2-0.2c0.7,0.4,2.2,0.8,3,0.2c-1,0.2-2-0.4-2.4-0.7
		c1.3-0.8,3-1.1,4.4,0.8c-0.6,0.4-0.8,0.5-1.3,0.7C202.3,19.1,201,19.9,199.5,19z M232.1,43.5c-4.2-0.4-6-1.3-7.8-2.2
		c-10.8,0.1-14.1-2.9-15.4-3.6c-1.9-0.9-4.1-3.8-5-6.5c0-0.1-0.1-0.2-0.1-0.3c0-0.1,0-0.2-0.1-0.2c-0.6-2.2-0.2-4.1,2.1-4.6
		c5.3-1.1,9.5,5.7,8.7,8.6c-0.5-1.9-1.7-3.4-4.4-5.4c-2.1-1.5-5.9-1.4-5.4,1.1c0,0.1,0,0.1,0,0.2c0,0.1,0.1,0.2,0.1,0.2
		c0.2,0.6,0.6,1.2,1.3,2c4.5,5.3,10.5,3.4,12.9,2.7c-2.1,2.4-4.1,2.2-6.2,2.1c4.9,2.4,9.1,0.5,11.2-0.9c-0.3,1-0.9,1.5-2,2.5
		c2.1,0,6.1-0.1,9.3-1.2c-3.8-0.1-11.7-4.4-15.2-7.8c-3.6-3.5-3.7-4.4-8.5-7.2c-0.3-9.8-6.7-8.8-8.7-7.3c-1.6,1.3-3.7,2.8-3.7,2.8
		c2.8,1.9,4.3,2.9,4.5,6.6c0.7,14.7,6.2,14.1,8.8,15.7c0.2,7.9-1.8,10-3.3,12.6c4.8-1.6,5.2-4.6,6.3-6.9c1,4.8,2.5,5.9,4.9,7.1
		c-0.6-1.2-3-8.9-1.8-12.1c2.1,0.4,9.7,7.3,12.5,12.1c0.6-6-2.1-7.4-3.2-9.1C225,45.3,230.1,45.7,232.1,43.5z M199.5,19
		c0,0-1.1-0.7-1.5-0.5c0,0-0.1-0.1,0.1-0.2c0.1-0.1,0.3-0.1,0.6-0.3c0.1-0.1,0.2-0.1,0.2-0.2c0.7,0.4,2.2,0.8,3,0.2
		c-1,0.2-2-0.4-2.4-0.7c1.3-0.8,3-1.1,4.4,0.8c-0.6,0.4-0.8,0.5-1.3,0.7C202.3,19.1,201,19.9,199.5,19z M219.2,30
		c0.2,0.2,0.4,0.4,0.7,0.6c0.5,0.4,1.9,1.4,3.8,2.5c0.6-0.1,2.5-0.7,5-3.2C225.3,30.8,220.6,30.2,219.2,30z M247,42.2
		c-0.6-0.2-1.3-0.5-2-1.1c0,2.4-1.2,4.5-2,5.8c2.1,0,3.3-0.3,4-0.7C247.2,45,247.2,43.7,247,42.2z M247,42.2c-0.6-0.2-1.3-0.5-2-1.1
		c0,2.4-1.2,4.5-2,5.8c2.1,0,3.3-0.3,4-0.7C247.2,45,247.2,43.7,247,42.2z M219.2,30c0.2,0.2,0.4,0.4,0.7,0.6
		c0.5,0.4,1.9,1.4,3.8,2.5c0.6-0.1,2.5-0.7,5-3.2C225.3,30.8,220.6,30.2,219.2,30z M232.1,43.5c-4.2-0.4-6-1.3-7.8-2.2
		c-10.8,0.1-14.1-2.9-15.4-3.6c-1.9-0.9-4.1-3.8-5-6.5c0-0.1-0.1-0.2-0.1-0.3c0-0.1,0-0.2-0.1-0.2c-0.6-2.2-0.2-4.1,2.1-4.6
		c5.3-1.1,9.5,5.7,8.7,8.6c-0.5-1.9-1.7-3.4-4.4-5.4c-2.1-1.5-5.9-1.4-5.4,1.1c0,0.1,0,0.1,0,0.2c0,0.1,0.1,0.2,0.1,0.2
		c0.2,0.6,0.6,1.2,1.3,2c4.5,5.3,10.5,3.4,12.9,2.7c-2.1,2.4-4.1,2.2-6.2,2.1c4.9,2.4,9.1,0.5,11.2-0.9c-0.3,1-0.9,1.5-2,2.5
		c2.1,0,6.1-0.1,9.3-1.2c-3.8-0.1-11.7-4.4-15.2-7.8c-3.6-3.5-3.7-4.4-8.5-7.2c-0.3-9.8-6.7-8.8-8.7-7.3c-1.6,1.3-3.7,2.8-3.7,2.8
		c2.8,1.9,4.3,2.9,4.5,6.6c0.7,14.7,6.2,14.1,8.8,15.7c0.2,7.9-1.8,10-3.3,12.6c4.8-1.6,5.2-4.6,6.3-6.9c1,4.8,2.5,5.9,4.9,7.1
		c-0.6-1.2-3-8.9-1.8-12.1c2.1,0.4,9.7,7.3,12.5,12.1c0.6-6-2.1-7.4-3.2-9.1C225,45.3,230.1,45.7,232.1,43.5z M199.5,19
		c0,0-1.1-0.7-1.5-0.5c0,0-0.1-0.1,0.1-0.2c0.1-0.1,0.3-0.1,0.6-0.3c0.1-0.1,0.2-0.1,0.2-0.2c0.7,0.4,2.2,0.8,3,0.2
		c-1,0.2-2-0.4-2.4-0.7c1.3-0.8,3-1.1,4.4,0.8c-0.6,0.4-0.8,0.5-1.3,0.7C202.3,19.1,201,19.9,199.5,19z M232.1,43.5
		c-4.2-0.4-6-1.3-7.8-2.2c-10.8,0.1-14.1-2.9-15.4-3.6c-1.9-0.9-4.1-3.8-5-6.5c0-0.1-0.1-0.2-0.1-0.3c0-0.1,0-0.2-0.1-0.2
		c-0.6-2.2-0.2-4.1,2.1-4.6c5.3-1.1,9.5,5.7,8.7,8.6c-0.5-1.9-1.7-3.4-4.4-5.4c-2.1-1.5-5.9-1.4-5.4,1.1c0,0.1,0,0.1,0,0.2
		c0,0.1,0.1,0.2,0.1,0.2c0.2,0.6,0.6,1.2,1.3,2c4.5,5.3,10.5,3.4,12.9,2.7c-2.1,2.4-4.1,2.2-6.2,2.1c4.9,2.4,9.1,0.5,11.2-0.9
		c-0.3,1-0.9,1.5-2,2.5c2.1,0,6.1-0.1,9.3-1.2c-3.8-0.1-11.7-4.4-15.2-7.8c-3.6-3.5-3.7-4.4-8.5-7.2c-0.3-9.8-6.7-8.8-8.7-7.3
		c-1.6,1.3-3.7,2.8-3.7,2.8c2.8,1.9,4.3,2.9,4.5,6.6c0.7,14.7,6.2,14.1,8.8,15.7c0.2,7.9-1.8,10-3.3,12.6c4.8-1.6,5.2-4.6,6.3-6.9
		c1,4.8,2.5,5.9,4.9,7.1c-0.6-1.2-3-8.9-1.8-12.1c2.1,0.4,9.7,7.3,12.5,12.1c0.6-6-2.1-7.4-3.2-9.1C225,45.3,230.1,45.7,232.1,43.5z
		 M199.5,19c0,0-1.1-0.7-1.5-0.5c0,0-0.1-0.1,0.1-0.2c0.1-0.1,0.3-0.1,0.6-0.3c0.1-0.1,0.2-0.1,0.2-0.2c0.7,0.4,2.2,0.8,3,0.2
		c-1,0.2-2-0.4-2.4-0.7c1.3-0.8,3-1.1,4.4,0.8c-0.6,0.4-0.8,0.5-1.3,0.7C202.3,19.1,201,19.9,199.5,19z M219.2,30
		c0.2,0.2,0.4,0.4,0.7,0.6c0.5,0.4,1.9,1.4,3.8,2.5c0.6-0.1,2.5-0.7,5-3.2C225.3,30.8,220.6,30.2,219.2,30z M247,42.2
		c-0.6-0.2-1.3-0.5-2-1.1c0,2.4-1.2,4.5-2,5.8c2.1,0,3.3-0.3,4-0.7C247.2,45,247.2,43.7,247,42.2z M272.9,43.5
		c-4.2-0.4-6-1.3-7.8-2.2c-10.8,0.1-14.1-2.9-15.5-3.6c-2-0.9-4.3-4.1-5.1-6.9c0-0.1,0-0.2-0.1-0.2c-0.6-2.2-0.2-4.1,2.1-4.6
		c5.3-1.1,9.5,5.7,8.7,8.6c-0.5-1.9-1.7-3.4-4.4-5.4c-2.1-1.5-5.9-1.4-5.4,1.1c0,0.1,0,0.1,0,0.2c0.2,0.6,0.6,1.4,1.4,2.3
		c4.5,5.3,10.5,3.4,12.9,2.7c-2.1,2.4-4.2,2.2-6.2,2.1c4.9,2.4,9.1,0.5,11.2-0.9c-0.3,1-0.9,1.5-2,2.5c2.1,0,6.1-0.1,9.3-1.2
		c-3.8-0.1-11.7-4.5-15.2-7.8c-3.6-3.5-3.7-4.4-8.5-7.2c-0.3-9.8-6.7-8.8-8.7-7.3c-1.6,1.3-3.7,2.8-3.7,2.8c2.8,1.9,4.3,2.9,4.5,6.6
		c0.7,14.7,6.2,14.1,8.8,15.7c0.2,7.9-1.8,10-3.3,12.6c4.8-1.6,5.2-4.6,6.3-6.9c1,4.8,2.5,5.9,4.9,7.1c-0.6-1.2-2.9-8.9-1.8-12.1
		c2.1,0.4,9.7,7.3,12.5,12.1c0.6-6-2.1-7.4-3.2-9.1C265.7,45.3,270.8,45.7,272.9,43.5z M240.2,19c0,0-1-0.7-1.5-0.5
		c0,0,0-0.1,0.1-0.2c0.1-0.1,0.3-0.1,0.6-0.3c0.1-0.1,0.2-0.1,0.2-0.2c0.7,0.4,2.2,0.8,3,0.2c-1,0.2-2-0.4-2.4-0.7
		c1.3-0.8,3-1.1,4.4,0.8c-0.6,0.4-0.8,0.5-1.3,0.7C243,19.1,241.8,19.9,240.2,19z M259.9,30c0.2,0.2,0.4,0.4,0.7,0.6
		c0.5,0.4,1.9,1.4,3.8,2.5c0.6-0.1,2.5-0.7,5-3.2C266.1,30.8,261.3,30.2,259.9,30z M259.9,30c0.2,0.2,0.4,0.4,0.7,0.6
		c0.5,0.4,1.9,1.4,3.8,2.5c0.6-0.1,2.5-0.7,5-3.2C266.1,30.8,261.3,30.2,259.9,30z M272.9,43.5c-4.2-0.4-6-1.3-7.8-2.2
		c-10.8,0.1-14.1-2.9-15.5-3.6c-2-0.9-4.3-4.1-5.1-6.9c0-0.1,0-0.2-0.1-0.2c-0.6-2.2-0.2-4.1,2.1-4.6c5.3-1.1,9.5,5.7,8.7,8.6
		c-0.5-1.9-1.7-3.4-4.4-5.4c-2.1-1.5-5.9-1.4-5.4,1.1c0,0.1,0,0.1,0,0.2c0.2,0.6,0.6,1.4,1.4,2.3c4.5,5.3,10.5,3.4,12.9,2.7
		c-2.1,2.4-4.2,2.2-6.2,2.1c4.9,2.4,9.1,0.5,11.2-0.9c-0.3,1-0.9,1.5-2,2.5c2.1,0,6.1-0.1,9.3-1.2c-3.8-0.1-11.7-4.5-15.2-7.8
		c-3.6-3.5-3.7-4.4-8.5-7.2c-0.3-9.8-6.7-8.8-8.7-7.3c-1.6,1.3-3.7,2.8-3.7,2.8c2.8,1.9,4.3,2.9,4.5,6.6c0.7,14.7,6.2,14.1,8.8,15.7
		c0.2,7.9-1.8,10-3.3,12.6c4.8-1.6,5.2-4.6,6.3-6.9c1,4.8,2.5,5.9,4.9,7.1c-0.6-1.2-2.9-8.9-1.8-12.1c2.1,0.4,9.7,7.3,12.5,12.1
		c0.6-6-2.1-7.4-3.2-9.1C265.7,45.3,270.8,45.7,272.9,43.5z M240.2,19c0,0-1-0.7-1.5-0.5c0,0,0-0.1,0.1-0.2c0.1-0.1,0.3-0.1,0.6-0.3
		c0.1-0.1,0.2-0.1,0.2-0.2c0.7,0.4,2.2,0.8,3,0.2c-1,0.2-2-0.4-2.4-0.7c1.3-0.8,3-1.1,4.4,0.8c-0.6,0.4-0.8,0.5-1.3,0.7
		C243,19.1,241.8,19.9,240.2,19z M247,42.2c-0.6-0.2-1.3-0.5-2-1.1c0,2.4-1.2,4.5-2,5.8c2.1,0,3.3-0.3,4-0.7
		C247.2,45,247.2,43.7,247,42.2z M219.2,30c0.2,0.2,0.4,0.4,0.7,0.6c0.5,0.4,1.9,1.4,3.8,2.5c0.6-0.1,2.5-0.7,5-3.2
		C225.3,30.8,220.6,30.2,219.2,30z M232.1,43.5c-4.2-0.4-6-1.3-7.8-2.2c-10.8,0.1-14.1-2.9-15.4-3.6c-1.9-0.9-4.1-3.8-5-6.5
		c0-0.1-0.1-0.2-0.1-0.3c0-0.1,0-0.2-0.1-0.2c-0.6-2.2-0.2-4.1,2.1-4.6c5.3-1.1,9.5,5.7,8.7,8.6c-0.5-1.9-1.7-3.4-4.4-5.4
		c-2.1-1.5-5.9-1.4-5.4,1.1c0,0.1,0,0.1,0,0.2c0,0.1,0.1,0.2,0.1,0.2c0.2,0.6,0.6,1.2,1.3,2c4.5,5.3,10.5,3.4,12.9,2.7
		c-2.1,2.4-4.1,2.2-6.2,2.1c4.9,2.4,9.1,0.5,11.2-0.9c-0.3,1-0.9,1.5-2,2.5c2.1,0,6.1-0.1,9.3-1.2c-3.8-0.1-11.7-4.4-15.2-7.8
		c-3.6-3.5-3.7-4.4-8.5-7.2c-0.3-9.8-6.7-8.8-8.7-7.3c-1.6,1.3-3.7,2.8-3.7,2.8c2.8,1.9,4.3,2.9,4.5,6.6c0.7,14.7,6.2,14.1,8.8,15.7
		c0.2,7.9-1.8,10-3.3,12.6c4.8-1.6,5.2-4.6,6.3-6.9c1,4.8,2.5,5.9,4.9,7.1c-0.6-1.2-3-8.9-1.8-12.1c2.1,0.4,9.7,7.3,12.5,12.1
		c0.6-6-2.1-7.4-3.2-9.1C225,45.3,230.1,45.7,232.1,43.5z M199.5,19c0,0-1.1-0.7-1.5-0.5c0,0-0.1-0.1,0.1-0.2
		c0.1-0.1,0.3-0.1,0.6-0.3c0.1-0.1,0.2-0.1,0.2-0.2c0.7,0.4,2.2,0.8,3,0.2c-1,0.2-2-0.4-2.4-0.7c1.3-0.8,3-1.1,4.4,0.8
		c-0.6,0.4-0.8,0.5-1.3,0.7C202.3,19.1,201,19.9,199.5,19z M232.1,43.5c-4.2-0.4-6-1.3-7.8-2.2c-10.8,0.1-14.1-2.9-15.4-3.6
		c-1.9-0.9-4.1-3.8-5-6.5c0-0.1-0.1-0.2-0.1-0.3c0-0.1,0-0.2-0.1-0.2c-0.6-2.2-0.2-4.1,2.1-4.6c5.3-1.1,9.5,5.7,8.7,8.6
		c-0.5-1.9-1.7-3.4-4.4-5.4c-2.1-1.5-5.9-1.4-5.4,1.1c0,0.1,0,0.1,0,0.2c0,0.1,0.1,0.2,0.1,0.2c0.2,0.6,0.6,1.2,1.3,2
		c4.5,5.3,10.5,3.4,12.9,2.7c-2.1,2.4-4.1,2.2-6.2,2.1c4.9,2.4,9.1,0.5,11.2-0.9c-0.3,1-0.9,1.5-2,2.5c2.1,0,6.1-0.1,9.3-1.2
		c-3.8-0.1-11.7-4.4-15.2-7.8c-3.6-3.5-3.7-4.4-8.5-7.2c-0.3-9.8-6.7-8.8-8.7-7.3c-1.6,1.3-3.7,2.8-3.7,2.8c2.8,1.9,4.3,2.9,4.5,6.6
		c0.7,14.7,6.2,14.1,8.8,15.7c0.2,7.9-1.8,10-3.3,12.6c4.8-1.6,5.2-4.6,6.3-6.9c1,4.8,2.5,5.9,4.9,7.1c-0.6-1.2-3-8.9-1.8-12.1
		c2.1,0.4,9.7,7.3,12.5,12.1c0.6-6-2.1-7.4-3.2-9.1C225,45.3,230.1,45.7,232.1,43.5z M199.5,19c0,0-1.1-0.7-1.5-0.5
		c0,0-0.1-0.1,0.1-0.2c0.1-0.1,0.3-0.1,0.6-0.3c0.1-0.1,0.2-0.1,0.2-0.2c0.7,0.4,2.2,0.8,3,0.2c-1,0.2-2-0.4-2.4-0.7
		c1.3-0.8,3-1.1,4.4,0.8c-0.6,0.4-0.8,0.5-1.3,0.7C202.3,19.1,201,19.9,199.5,19z M219.2,30c0.2,0.2,0.4,0.4,0.7,0.6
		c0.5,0.4,1.9,1.4,3.8,2.5c0.6-0.1,2.5-0.7,5-3.2C225.3,30.8,220.6,30.2,219.2,30z M272.9,43.5c-4.2-0.4-6-1.3-7.8-2.2
		c-10.8,0.1-14.1-2.9-15.5-3.6c-2-0.9-4.3-4.1-5.1-6.9c0-0.1,0-0.2-0.1-0.2c-0.6-2.2-0.2-4.1,2.1-4.6c5.3-1.1,9.5,5.7,8.7,8.6
		c-0.5-1.9-1.7-3.4-4.4-5.4c-2.1-1.5-5.9-1.4-5.4,1.1c0,0.1,0,0.1,0,0.2c0.2,0.6,0.6,1.4,1.4,2.3c4.5,5.3,10.5,3.4,12.9,2.7
		c-2.1,2.4-4.2,2.2-6.2,2.1c4.9,2.4,9.1,0.5,11.2-0.9c-0.3,1-0.9,1.5-2,2.5c2.1,0,6.1-0.1,9.3-1.2c-3.8-0.1-11.7-4.5-15.2-7.8
		c-3.6-3.5-3.7-4.4-8.5-7.2c-0.3-9.8-6.7-8.8-8.7-7.3c-1.6,1.3-3.7,2.8-3.7,2.8c2.8,1.9,4.3,2.9,4.5,6.6c0.7,14.7,6.2,14.1,8.8,15.7
		c0.2,7.9-1.8,10-3.3,12.6c4.8-1.6,5.2-4.6,6.3-6.9c1,4.8,2.5,5.9,4.9,7.1c-0.6-1.2-2.9-8.9-1.8-12.1c2.1,0.4,9.7,7.3,12.5,12.1
		c0.6-6-2.1-7.4-3.2-9.1C265.7,45.3,270.8,45.7,272.9,43.5z M240.2,19c0,0-1-0.7-1.5-0.5c0,0,0-0.1,0.1-0.2c0.1-0.1,0.3-0.1,0.6-0.3
		c0.1-0.1,0.2-0.1,0.2-0.2c0.7,0.4,2.2,0.8,3,0.2c-1,0.2-2-0.4-2.4-0.7c1.3-0.8,3-1.1,4.4,0.8c-0.6,0.4-0.8,0.5-1.3,0.7
		C243,19.1,241.8,19.9,240.2,19z M247,42.2c-0.6-0.2-1.3-0.5-2-1.1c0,2.4-1.2,4.5-2,5.8c2.1,0,3.3-0.3,4-0.7
		C247.2,45,247.2,43.7,247,42.2z M259.9,30c0.2,0.2,0.4,0.4,0.7,0.6c0.5,0.4,1.9,1.4,3.8,2.5c0.6-0.1,2.5-0.7,5-3.2
		C266.1,30.8,261.3,30.2,259.9,30z M259.9,30c0.2,0.2,0.4,0.4,0.7,0.6c0.5,0.4,1.9,1.4,3.8,2.5c0.6-0.1,2.5-0.7,5-3.2
		C266.1,30.8,261.3,30.2,259.9,30z M247,42.2c-0.6-0.2-1.3-0.5-2-1.1c0,2.4-1.2,4.5-2,5.8c2.1,0,3.3-0.3,4-0.7
		C247.2,45,247.2,43.7,247,42.2z M272.9,43.5c-4.2-0.4-6-1.3-7.8-2.2c-10.8,0.1-14.1-2.9-15.5-3.6c-2-0.9-4.3-4.1-5.1-6.9
		c0-0.1,0-0.2-0.1-0.2c-0.6-2.2-0.2-4.1,2.1-4.6c5.3-1.1,9.5,5.7,8.7,8.6c-0.5-1.9-1.7-3.4-4.4-5.4c-2.1-1.5-5.9-1.4-5.4,1.1
		c0,0.1,0,0.1,0,0.2c0.2,0.6,0.6,1.4,1.4,2.3c4.5,5.3,10.5,3.4,12.9,2.7c-2.1,2.4-4.2,2.2-6.2,2.1c4.9,2.4,9.1,0.5,11.2-0.9
		c-0.3,1-0.9,1.5-2,2.5c2.1,0,6.1-0.1,9.3-1.2c-3.8-0.1-11.7-4.5-15.2-7.8c-3.6-3.5-3.7-4.4-8.5-7.2c-0.3-9.8-6.7-8.8-8.7-7.3
		c-1.6,1.3-3.7,2.8-3.7,2.8c2.8,1.9,4.3,2.9,4.5,6.6c0.7,14.7,6.2,14.1,8.8,15.7c0.2,7.9-1.8,10-3.3,12.6c4.8-1.6,5.2-4.6,6.3-6.9
		c1,4.8,2.5,5.9,4.9,7.1c-0.6-1.2-2.9-8.9-1.8-12.1c2.1,0.4,9.7,7.3,12.5,12.1c0.6-6-2.1-7.4-3.2-9.1
		C265.7,45.3,270.8,45.7,272.9,43.5z M240.2,19c0,0-1-0.7-1.5-0.5c0,0,0-0.1,0.1-0.2c0.1-0.1,0.3-0.1,0.6-0.3
		c0.1-0.1,0.2-0.1,0.2-0.2c0.7,0.4,2.2,0.8,3,0.2c-1,0.2-2-0.4-2.4-0.7c1.3-0.8,3-1.1,4.4,0.8c-0.6,0.4-0.8,0.5-1.3,0.7
		C243,19.1,241.8,19.9,240.2,19z M219.2,30c0.2,0.2,0.4,0.4,0.7,0.6c0.5,0.4,1.9,1.4,3.8,2.5c0.6-0.1,2.5-0.7,5-3.2
		C225.3,30.8,220.6,30.2,219.2,30z M232.1,43.5c-4.2-0.4-6-1.3-7.8-2.2c-10.8,0.1-14.1-2.9-15.4-3.6c-1.9-0.9-4.1-3.8-5-6.5
		c0-0.1-0.1-0.2-0.1-0.3c0-0.1,0-0.2-0.1-0.2c-0.6-2.2-0.2-4.1,2.1-4.6c5.3-1.1,9.5,5.7,8.7,8.6c-0.5-1.9-1.7-3.4-4.4-5.4
		c-2.1-1.5-5.9-1.4-5.4,1.1c0,0.1,0,0.1,0,0.2c0,0.1,0.1,0.2,0.1,0.2c0.2,0.6,0.6,1.2,1.3,2c4.5,5.3,10.5,3.4,12.9,2.7
		c-2.1,2.4-4.1,2.2-6.2,2.1c4.9,2.4,9.1,0.5,11.2-0.9c-0.3,1-0.9,1.5-2,2.5c2.1,0,6.1-0.1,9.3-1.2c-3.8-0.1-11.7-4.4-15.2-7.8
		c-3.6-3.5-3.7-4.4-8.5-7.2c-0.3-9.8-6.7-8.8-8.7-7.3c-1.6,1.3-3.7,2.8-3.7,2.8c2.8,1.9,4.3,2.9,4.5,6.6c0.7,14.7,6.2,14.1,8.8,15.7
		c0.2,7.9-1.8,10-3.3,12.6c4.8-1.6,5.2-4.6,6.3-6.9c1,4.8,2.5,5.9,4.9,7.1c-0.6-1.2-3-8.9-1.8-12.1c2.1,0.4,9.7,7.3,12.5,12.1
		c0.6-6-2.1-7.4-3.2-9.1C225,45.3,230.1,45.7,232.1,43.5z M199.5,19c0,0-1.1-0.7-1.5-0.5c0,0-0.1-0.1,0.1-0.2
		c0.1-0.1,0.3-0.1,0.6-0.3c0.1-0.1,0.2-0.1,0.2-0.2c0.7,0.4,2.2,0.8,3,0.2c-1,0.2-2-0.4-2.4-0.7c1.3-0.8,3-1.1,4.4,0.8
		c-0.6,0.4-0.8,0.5-1.3,0.7C202.3,19.1,201,19.9,199.5,19z M232.1,43.5c-4.2-0.4-6-1.3-7.8-2.2c-10.8,0.1-14.1-2.9-15.4-3.6
		c-1.9-0.9-4.1-3.8-5-6.5c0-0.1-0.1-0.2-0.1-0.3c0-0.1,0-0.2-0.1-0.2c-0.6-2.2-0.2-4.1,2.1-4.6c5.3-1.1,9.5,5.7,8.7,8.6
		c-0.5-1.9-1.7-3.4-4.4-5.4c-2.1-1.5-5.9-1.4-5.4,1.1c0,0.1,0,0.1,0,0.2c0,0.1,0.1,0.2,0.1,0.2c0.2,0.6,0.6,1.2,1.3,2
		c4.5,5.3,10.5,3.4,12.9,2.7c-2.1,2.4-4.1,2.2-6.2,2.1c4.9,2.4,9.1,0.5,11.2-0.9c-0.3,1-0.9,1.5-2,2.5c2.1,0,6.1-0.1,9.3-1.2
		c-3.8-0.1-11.7-4.4-15.2-7.8c-3.6-3.5-3.7-4.4-8.5-7.2c-0.3-9.8-6.7-8.8-8.7-7.3c-1.6,1.3-3.7,2.8-3.7,2.8c2.8,1.9,4.3,2.9,4.5,6.6
		c0.7,14.7,6.2,14.1,8.8,15.7c0.2,7.9-1.8,10-3.3,12.6c4.8-1.6,5.2-4.6,6.3-6.9c1,4.8,2.5,5.9,4.9,7.1c-0.6-1.2-3-8.9-1.8-12.1
		c2.1,0.4,9.7,7.3,12.5,12.1c0.6-6-2.1-7.4-3.2-9.1C225,45.3,230.1,45.7,232.1,43.5z M199.5,19c0,0-1.1-0.7-1.5-0.5
		c0,0-0.1-0.1,0.1-0.2c0.1-0.1,0.3-0.1,0.6-0.3c0.1-0.1,0.2-0.1,0.2-0.2c0.7,0.4,2.2,0.8,3,0.2c-1,0.2-2-0.4-2.4-0.7
		c1.3-0.8,3-1.1,4.4,0.8c-0.6,0.4-0.8,0.5-1.3,0.7C202.3,19.1,201,19.9,199.5,19z M219.2,30c0.2,0.2,0.4,0.4,0.7,0.6
		c0.5,0.4,1.9,1.4,3.8,2.5c0.6-0.1,2.5-0.7,5-3.2C225.3,30.8,220.6,30.2,219.2,30z M272.9,43.5c-4.2-0.4-6-1.3-7.8-2.2
		c-10.8,0.1-14.1-2.9-15.5-3.6c-2-0.9-4.3-4.1-5.1-6.9c0-0.1,0-0.2-0.1-0.2c-0.6-2.2-0.2-4.1,2.1-4.6c5.3-1.1,9.5,5.7,8.7,8.6
		c-0.5-1.9-1.7-3.4-4.4-5.4c-2.1-1.5-5.9-1.4-5.4,1.1c0,0.1,0,0.1,0,0.2c0.2,0.6,0.6,1.4,1.4,2.3c4.5,5.3,10.5,3.4,12.9,2.7
		c-2.1,2.4-4.2,2.2-6.2,2.1c4.9,2.4,9.1,0.5,11.2-0.9c-0.3,1-0.9,1.5-2,2.5c2.1,0,6.1-0.1,9.3-1.2c-3.8-0.1-11.7-4.5-15.2-7.8
		c-3.6-3.5-3.7-4.4-8.5-7.2c-0.3-9.8-6.7-8.8-8.7-7.3c-1.6,1.3-3.7,2.8-3.7,2.8c2.8,1.9,4.3,2.9,4.5,6.6c0.7,14.7,6.2,14.1,8.8,15.7
		c0.2,7.9-1.8,10-3.3,12.6c4.8-1.6,5.2-4.6,6.3-6.9c1,4.8,2.5,5.9,4.9,7.1c-0.6-1.2-2.9-8.9-1.8-12.1c2.1,0.4,9.7,7.3,12.5,12.1
		c0.6-6-2.1-7.4-3.2-9.1C265.7,45.3,270.8,45.7,272.9,43.5z M240.2,19c0,0-1-0.7-1.5-0.5c0,0,0-0.1,0.1-0.2c0.1-0.1,0.3-0.1,0.6-0.3
		c0.1-0.1,0.2-0.1,0.2-0.2c0.7,0.4,2.2,0.8,3,0.2c-1,0.2-2-0.4-2.4-0.7c1.3-0.8,3-1.1,4.4,0.8c-0.6,0.4-0.8,0.5-1.3,0.7
		C243,19.1,241.8,19.9,240.2,19z M247,42.2c-0.6-0.2-1.3-0.5-2-1.1c0,2.4-1.2,4.5-2,5.8c2.1,0,3.3-0.3,4-0.7
		C247.2,45,247.2,43.7,247,42.2z M259.9,30c0.2,0.2,0.4,0.4,0.7,0.6c0.5,0.4,1.9,1.4,3.8,2.5c0.6-0.1,2.5-0.7,5-3.2
		C266.1,30.8,261.3,30.2,259.9,30z M287,42.2c-0.6-0.2-1.3-0.5-2-1.1c0,2.4-1.2,4.5-1.9,5.8c2.1,0,3.3-0.3,4-0.7
		C287.2,45,287.2,43.7,287,42.2z M287,42.2c-0.6-0.2-1.3-0.5-2-1.1c0,2.4-1.2,4.5-1.9,5.8c2.1,0,3.3-0.3,4-0.7
		C287.2,45,287.2,43.7,287,42.2z M264.4,33.1c0.6-0.1,2.5-0.7,5-3.2c-3.3,0.9-8.1,0.3-9.5,0.1c0.2,0.2,0.4,0.4,0.7,0.6
		C261.1,31,262.5,32,264.4,33.1z M247,42.2c-0.6-0.2-1.3-0.5-2-1.1c0,2.4-1.2,4.5-2,5.8c2.1,0,3.3-0.3,4-0.7
		C247.2,45,247.2,43.7,247,42.2z M272.9,43.5c-4.2-0.4-6-1.3-7.8-2.2c-10.8,0.1-14.1-2.9-15.5-3.6c-2-0.9-4.3-4.1-5.1-6.9
		c0-0.1,0-0.2-0.1-0.2c-0.6-2.2-0.2-4.1,2.1-4.6c5.3-1.1,9.5,5.7,8.7,8.6c-0.5-1.9-1.7-3.4-4.4-5.4c-2.1-1.5-5.9-1.4-5.4,1.1
		c0,0.1,0,0.1,0,0.2c0.2,0.6,0.6,1.4,1.4,2.3c4.5,5.3,10.5,3.4,12.9,2.7c-2.1,2.4-4.2,2.2-6.2,2.1c4.9,2.4,9.1,0.5,11.2-0.9
		c-0.3,1-0.9,1.5-2,2.5c2.1,0,6.1-0.1,9.3-1.2c-3.8-0.1-11.7-4.5-15.2-7.8c-3.6-3.5-3.7-4.4-8.5-7.2c-0.3-9.8-6.7-8.8-8.7-7.3
		c-1.6,1.3-3.7,2.8-3.7,2.8c2.8,1.9,4.3,2.9,4.5,6.6c0.7,14.7,6.2,14.1,8.8,15.7c0.2,7.9-1.8,10-3.3,12.6c4.8-1.6,5.2-4.6,6.3-6.9
		c1,4.8,2.5,5.9,4.9,7.1c-0.6-1.2-2.9-8.9-1.8-12.1c2.1,0.4,9.7,7.3,12.5,12.1c0.6-6-2.1-7.4-3.2-9.1
		C265.7,45.3,270.8,45.7,272.9,43.5z M240.2,19c0,0-1-0.7-1.5-0.5c0,0,0-0.1,0.1-0.2c0.1-0.1,0.3-0.1,0.6-0.3
		c0.1-0.1,0.2-0.1,0.2-0.2c0.7,0.4,2.2,0.8,3,0.2c-1,0.2-2-0.4-2.4-0.7c1.3-0.8,3-1.1,4.4,0.8c-0.6,0.4-0.8,0.5-1.3,0.7
		C243,19.1,241.8,19.9,240.2,19z M223.7,33.1c0.6-0.1,2.5-0.7,5-3.2c-3.3,0.9-8.1,0.3-9.5,0.1c0.2,0.2,0.4,0.4,0.7,0.6
		C220.4,31,221.8,32,223.7,33.1z M232.1,43.5c-4.2-0.4-6-1.3-7.8-2.2c-10.8,0.1-14.1-2.9-15.4-3.6c-1.9-0.9-4.1-3.8-5-6.5
		c0-0.1-0.1-0.2-0.1-0.3c0-0.1,0-0.2-0.1-0.2c-0.6-2.2-0.2-4.1,2.1-4.6c5.3-1.1,9.5,5.7,8.7,8.6c-0.5-1.9-1.7-3.4-4.4-5.4
		c-2.1-1.5-5.9-1.4-5.4,1.1c0,0.1,0,0.1,0,0.2c0,0.1,0.1,0.2,0.1,0.2c0.2,0.6,0.6,1.2,1.3,2c4.5,5.3,10.5,3.4,12.9,2.7
		c-2.1,2.4-4.1,2.2-6.2,2.1c4.9,2.4,9.1,0.5,11.2-0.9c-0.3,1-0.9,1.5-2,2.5c2.1,0,6.1-0.1,9.3-1.2c-3.8-0.1-11.7-4.4-15.2-7.8
		c-3.6-3.5-3.7-4.4-8.5-7.2c-0.3-9.8-6.7-8.8-8.7-7.3c-1.6,1.3-3.7,2.8-3.7,2.8c2.8,1.9,4.3,2.9,4.5,6.6c0.7,14.7,6.2,14.1,8.8,15.7
		c0.2,7.9-1.8,10-3.3,12.6c4.8-1.6,5.2-4.6,6.3-6.9c1,4.8,2.5,5.9,4.9,7.1c-0.6-1.2-3-8.9-1.8-12.1c2.1,0.4,9.7,7.3,12.5,12.1
		c0.6-6-2.1-7.4-3.2-9.1C225,45.3,230.1,45.7,232.1,43.5z M199.5,19c0,0-1.1-0.7-1.5-0.5c0,0-0.1-0.1,0.1-0.2
		c0.1-0.1,0.3-0.1,0.6-0.3c0.1-0.1,0.2-0.1,0.2-0.2c0.7,0.4,2.2,0.8,3,0.2c-1,0.2-2-0.4-2.4-0.7c1.3-0.8,3-1.1,4.4,0.8
		c-0.6,0.4-0.8,0.5-1.3,0.7C202.3,19.1,201,19.9,199.5,19z M187.5,5.1v58.3h133.7V5.1H187.5z M228.8,47.5c0.4,3.6,0.7,4.9-0.5,10.7
		c-2.5-5.1-8-10.6-11.5-13.2c-0.3,1.5-0.7,7.2,4,10.9c-4.4,0.3-7.5-2.5-9.4-3.8c-1.1,1.2-3.6,2.1-5.7,2.5c-1.2,0.2-2.2,0.3-2.9,0.1
		c1.2-1.5,2.6-3.7,3.3-6.6c-1.2,0.2-3.5,0.6-6.2,0.2c3.4-4.1,3-7.4,2.3-9.1c-2.3-2.7-4.3-7.1-4-13.6c-0.3-2.1-0.3-4-3.7-6.2
		c-0.5-0.3-1-0.6-1.6-1c0,0,3.2-1.4,4.6-3c2.3-2.6,10.3-6,12.3,6.4c4.5,2.5,5.5,4,7.4,6.1c2.3,1.2,13.1,0.5,14.8-0.1
		c-1.2,3.7-4.9,6.1-5.9,6.7c3.1,1.5,7,2.9,10.6,2.7c-2.1,2-4.2,2.6-8.4,3.5c0.1,0.1,4.2,2,8.5,0.8C234.5,44.5,232.2,45.9,228.8,47.5
		z M269.5,47.5c0.4,3.6,0.7,4.9-0.5,10.7c-2.5-5.1-8-10.6-11.5-13.2c-0.3,1.5-0.7,7.2,4,10.9c-4.4,0.3-7.5-2.5-9.4-3.8
		c-1.1,1.2-3.6,2.1-5.7,2.5c-1.2,0.2-2.2,0.3-2.9,0.1c1.2-1.5,2.6-3.7,3.2-6.6c-1.2,0.2-3.5,0.6-6.2,0.2c3.4-4.1,3-7.4,2.3-9.1
		c-2.3-2.7-4.3-7.1-3.9-13.6c-0.3-2.1-0.3-4-3.7-6.2c-0.5-0.3-1-0.6-1.7-1c0,0,3.2-1.4,4.6-3c2.3-2.6,10.3-6,12.3,6.4
		c4.5,2.5,5.5,4,7.4,6.1c2.3,1.2,13.1,0.5,14.8-0.1c-1.2,3.7-4.9,6.1-5.8,6.7c3.1,1.5,7,2.9,10.6,2.7c-2.1,2-4.2,2.6-8.4,3.5
		c0.1,0.1,4.2,2,8.5,0.8C275.2,44.5,272.9,45.9,269.5,47.5z M309.6,47.5c0.4,3.6,0.7,4.9-0.5,10.7c-2.5-5.1-8-10.6-11.5-13.2
		c-0.3,1.5-0.7,7.2,4,10.9c-4.4,0.3-7.5-2.5-9.4-3.8c-1.1,1.2-3.6,2.1-5.8,2.5c-1.2,0.2-2.2,0.3-2.9,0.1c1.2-1.5,2.6-3.7,3.3-6.6
		c-1.2,0.2-3.5,0.6-6.2,0.2c3.4-4.1,3-7.4,2.3-9.1c-2.3-2.7-4.3-7.1-3.9-13.6c-0.3-2.1-0.3-4-3.7-6.2c-0.5-0.3-1-0.6-1.6-1
		c0,0,3.2-1.4,4.6-3c2.3-2.6,10.3-6,12.3,6.4c4.5,2.5,5.5,4,7.4,6.1c2.3,1.2,13.1,0.5,14.8-0.1c-1.2,3.7-4.9,6.1-5.8,6.7
		c3.1,1.5,7,2.9,10.6,2.7c-2.1,2-4.2,2.6-8.4,3.5c0.1,0.1,4.2,2,8.5,0.8C315.3,44.5,313,45.9,309.6,47.5z M289.7,37.7
		c-2-0.9-4.3-4.1-5.1-6.9c-0.7-2.3-0.3-4.3,2.1-4.8c5.3-1.1,9.5,5.7,8.7,8.6c-0.5-1.9-1.7-3.4-4.4-5.4c-2.1-1.5-6-1.4-5.3,1.2
		c0.2,0.6,0.6,1.4,1.4,2.3c4.5,5.3,10.5,3.4,12.9,2.7c-2.1,2.4-4.2,2.2-6.2,2.1c4.9,2.4,9.1,0.5,11.2-0.9c-0.3,1-0.9,1.5-2,2.5
		c2.1,0,6.1-0.1,9.3-1.2c-3.8-0.1-11.7-4.4-15.2-7.8c-3.6-3.5-3.7-4.4-8.5-7.2c-0.3-9.8-6.7-8.8-8.7-7.3c-1.6,1.3-3.7,2.8-3.7,2.8
		c2.8,1.9,4.3,2.9,4.5,6.6c0.7,14.7,6.2,14.1,8.8,15.7c0.2,7.9-1.8,10-3.3,12.6c4.8-1.6,5.2-4.6,6.3-6.9c1,4.8,2.5,5.9,4.9,7.1
		c-0.6-1.2-2.9-8.9-1.8-12.1c2.1,0.4,9.7,7.3,12.5,12.1c0.6-6-2.1-7.4-3.2-9.1c0.9,0.9,5.9,1.2,8-1c-4.2-0.4-6-1.3-7.8-2.2
		C294.4,41.4,291,38.4,289.7,37.7z M280.2,19c0,0-1-0.7-1.5-0.5c0,0-0.1-0.1,0.1-0.2c0.1-0.1,0.3-0.1,0.6-0.3
		c0.1-0.1,0.1-0.1,0.2-0.2c0.7,0.4,2.2,0.8,3,0.2c-1,0.2-2-0.4-2.4-0.7c1.3-0.8,3-1.1,4.4,0.8c-0.6,0.4-0.8,0.5-1.3,0.7
		C283,19.1,281.8,19.9,280.2,19z M304.4,33.1c0.6-0.1,2.5-0.7,5-3.2c-3.3,0.9-8.1,0.3-9.5,0.1c0.2,0.2,0.4,0.4,0.7,0.6
		C301.1,31,302.5,32,304.4,33.1z M287,42.2c-0.6-0.2-1.3-0.5-2-1.1c0,2.4-1.2,4.5-1.9,5.8c2.1,0,3.3-0.3,4-0.7
		C287.2,45,287.2,43.7,287,42.2z M264.4,33.1c0.6-0.1,2.5-0.7,5-3.2c-3.3,0.9-8.1,0.3-9.5,0.1c0.2,0.2,0.4,0.4,0.7,0.6
		C261.1,31,262.5,32,264.4,33.1z M247,42.2c-0.6-0.2-1.3-0.5-2-1.1c0,2.4-1.2,4.5-2,5.8c2.1,0,3.3-0.3,4-0.7
		C247.2,45,247.2,43.7,247,42.2z M249.7,37.7c-2-0.9-4.3-4.1-5.1-6.9c0-0.1,0-0.2-0.1-0.2c-0.6-2.2-0.2-4.1,2.1-4.6
		c5.3-1.1,9.5,5.7,8.7,8.6c-0.5-1.9-1.7-3.4-4.4-5.4c-2.1-1.5-5.9-1.4-5.4,1.1c0,0.1,0,0.1,0,0.2c0.2,0.6,0.6,1.4,1.4,2.3
		c4.5,5.3,10.5,3.4,12.9,2.7c-2.1,2.4-4.2,2.2-6.2,2.1c4.9,2.4,9.1,0.5,11.2-0.9c-0.3,1-0.9,1.5-2,2.5c2.1,0,6.1-0.1,9.3-1.2
		c-3.8-0.1-11.7-4.5-15.2-7.8c-3.6-3.5-3.7-4.4-8.5-7.2c-0.3-9.8-6.7-8.8-8.7-7.3c-1.6,1.3-3.7,2.8-3.7,2.8c2.8,1.9,4.3,2.9,4.5,6.6
		c0.7,14.7,6.2,14.1,8.8,15.7c0.2,7.9-1.8,10-3.3,12.6c4.8-1.6,5.2-4.6,6.3-6.9c1,4.8,2.5,5.9,4.9,7.1c-0.6-1.2-2.9-8.9-1.8-12.1
		c2.1,0.4,9.7,7.3,12.5,12.1c0.6-6-2.1-7.4-3.2-9.1c0.9,0.9,5.9,1.2,8-1c-4.2-0.4-6-1.3-7.8-2.2C254.3,41.4,251,38.4,249.7,37.7z
		 M240.2,19c0,0-1-0.7-1.5-0.5c0,0,0-0.1,0.1-0.2c0.1-0.1,0.3-0.1,0.6-0.3c0.1-0.1,0.2-0.1,0.2-0.2c0.7,0.4,2.2,0.8,3,0.2
		c-1,0.2-2-0.4-2.4-0.7c1.3-0.8,3-1.1,4.4,0.8c-0.6,0.4-0.8,0.5-1.3,0.7C243,19.1,241.8,19.9,240.2,19z M223.7,33.1
		c0.6-0.1,2.5-0.7,5-3.2c-3.3,0.9-8.1,0.3-9.5,0.1c0.2,0.2,0.4,0.4,0.7,0.6C220.4,31,221.8,32,223.7,33.1z M208.9,37.7
		c-1.9-0.9-4.1-3.8-5-6.5c0-0.1-0.1-0.2-0.1-0.3c0-0.1,0-0.2-0.1-0.2c-0.6-2.2-0.2-4.1,2.1-4.6c5.3-1.1,9.5,5.7,8.7,8.6
		c-0.5-1.9-1.7-3.4-4.4-5.4c-2.1-1.5-5.9-1.4-5.4,1.1c0,0.1,0,0.1,0,0.2c0,0.1,0.1,0.2,0.1,0.2c0.2,0.6,0.6,1.2,1.3,2
		c4.5,5.3,10.5,3.4,12.9,2.7c-2.1,2.4-4.1,2.2-6.2,2.1c4.9,2.4,9.1,0.5,11.2-0.9c-0.3,1-0.9,1.5-2,2.5c2.1,0,6.1-0.1,9.3-1.2
		c-3.8-0.1-11.7-4.4-15.2-7.8c-3.6-3.5-3.7-4.4-8.5-7.2c-0.3-9.8-6.7-8.8-8.7-7.3c-1.6,1.3-3.7,2.8-3.7,2.8c2.8,1.9,4.3,2.9,4.5,6.6
		c0.7,14.7,6.2,14.1,8.8,15.7c0.2,7.9-1.8,10-3.3,12.6c4.8-1.6,5.2-4.6,6.3-6.9c1,4.8,2.5,5.9,4.9,7.1c-0.6-1.2-3-8.9-1.8-12.1
		c2.1,0.4,9.7,7.3,12.5,12.1c0.6-6-2.1-7.4-3.2-9.1c0.9,0.9,5.9,1.2,8-1c-4.2-0.4-6-1.3-7.8-2.2C213.6,41.4,210.3,38.4,208.9,37.7z
		 M199.5,19c0,0-1.1-0.7-1.5-0.5c0,0-0.1-0.1,0.1-0.2c0.1-0.1,0.3-0.1,0.6-0.3c0.1-0.1,0.2-0.1,0.2-0.2c0.7,0.4,2.2,0.8,3,0.2
		c-1,0.2-2-0.4-2.4-0.7c1.3-0.8,3-1.1,4.4,0.8c-0.6,0.4-0.8,0.5-1.3,0.7C202.3,19.1,201,19.9,199.5,19z M232.1,43.5
		c-4.2-0.4-6-1.3-7.8-2.2c-10.8,0.1-14.1-2.9-15.4-3.6c-1.9-0.9-4.1-3.8-5-6.5c0-0.1-0.1-0.2-0.1-0.3c0-0.1,0-0.2-0.1-0.2
		c-0.6-2.2-0.2-4.1,2.1-4.6c5.3-1.1,9.5,5.7,8.7,8.6c-0.5-1.9-1.7-3.4-4.4-5.4c-2.1-1.5-5.9-1.4-5.4,1.1c0,0.1,0,0.1,0,0.2
		c0,0.1,0.1,0.2,0.1,0.2c0.2,0.6,0.6,1.2,1.3,2c4.5,5.3,10.5,3.4,12.9,2.7c-2.1,2.4-4.1,2.2-6.2,2.1c4.9,2.4,9.1,0.5,11.2-0.9
		c-0.3,1-0.9,1.5-2,2.5c2.1,0,6.1-0.1,9.3-1.2c-3.8-0.1-11.7-4.4-15.2-7.8c-3.6-3.5-3.7-4.4-8.5-7.2c-0.3-9.8-6.7-8.8-8.7-7.3
		c-1.6,1.3-3.7,2.8-3.7,2.8c2.8,1.9,4.3,2.9,4.5,6.6c0.7,14.7,6.2,14.1,8.8,15.7c0.2,7.9-1.8,10-3.3,12.6c4.8-1.6,5.2-4.6,6.3-6.9
		c1,4.8,2.5,5.9,4.9,7.1c-0.6-1.2-3-8.9-1.8-12.1c2.1,0.4,9.7,7.3,12.5,12.1c0.6-6-2.1-7.4-3.2-9.1C225,45.3,230.1,45.7,232.1,43.5z
		 M199.5,19c0,0-1.1-0.7-1.5-0.5c0,0-0.1-0.1,0.1-0.2c0.1-0.1,0.3-0.1,0.6-0.3c0.1-0.1,0.2-0.1,0.2-0.2c0.7,0.4,2.2,0.8,3,0.2
		c-1,0.2-2-0.4-2.4-0.7c1.3-0.8,3-1.1,4.4,0.8c-0.6,0.4-0.8,0.5-1.3,0.7C202.3,19.1,201,19.9,199.5,19z M219.2,30
		c0.2,0.2,0.4,0.4,0.7,0.6c0.5,0.4,1.9,1.4,3.8,2.5c0.6-0.1,2.5-0.7,5-3.2C225.3,30.8,220.6,30.2,219.2,30z M272.9,43.5
		c-4.2-0.4-6-1.3-7.8-2.2c-10.8,0.1-14.1-2.9-15.5-3.6c-2-0.9-4.3-4.1-5.1-6.9c0-0.1,0-0.2-0.1-0.2c-0.6-2.2-0.2-4.1,2.1-4.6
		c5.3-1.1,9.5,5.7,8.7,8.6c-0.5-1.9-1.7-3.4-4.4-5.4c-2.1-1.5-5.9-1.4-5.4,1.1c0,0.1,0,0.1,0,0.2c0.2,0.6,0.6,1.4,1.4,2.3
		c4.5,5.3,10.5,3.4,12.9,2.7c-2.1,2.4-4.2,2.2-6.2,2.1c4.9,2.4,9.1,0.5,11.2-0.9c-0.3,1-0.9,1.5-2,2.5c2.1,0,6.1-0.1,9.3-1.2
		c-3.8-0.1-11.7-4.5-15.2-7.8c-3.6-3.5-3.7-4.4-8.5-7.2c-0.3-9.8-6.7-8.8-8.7-7.3c-1.6,1.3-3.7,2.8-3.7,2.8c2.8,1.9,4.3,2.9,4.5,6.6
		c0.7,14.7,6.2,14.1,8.8,15.7c0.2,7.9-1.8,10-3.3,12.6c4.8-1.6,5.2-4.6,6.3-6.9c1,4.8,2.5,5.9,4.9,7.1c-0.6-1.2-2.9-8.9-1.8-12.1
		c2.1,0.4,9.7,7.3,12.5,12.1c0.6-6-2.1-7.4-3.2-9.1C265.7,45.3,270.8,45.7,272.9,43.5z M240.2,19c0,0-1-0.7-1.5-0.5
		c0,0,0-0.1,0.1-0.2c0.1-0.1,0.3-0.1,0.6-0.3c0.1-0.1,0.2-0.1,0.2-0.2c0.7,0.4,2.2,0.8,3,0.2c-1,0.2-2-0.4-2.4-0.7
		c1.3-0.8,3-1.1,4.4,0.8c-0.6,0.4-0.8,0.5-1.3,0.7C243,19.1,241.8,19.9,240.2,19z M247,42.2c-0.6-0.2-1.3-0.5-2-1.1
		c0,2.4-1.2,4.5-2,5.8c2.1,0,3.3-0.3,4-0.7C247.2,45,247.2,43.7,247,42.2z M259.9,30c0.2,0.2,0.4,0.4,0.7,0.6
		c0.5,0.4,1.9,1.4,3.8,2.5c0.6-0.1,2.5-0.7,5-3.2C266.1,30.8,261.3,30.2,259.9,30z M287,42.2c-0.6-0.2-1.3-0.5-2-1.1
		c0,2.4-1.2,4.5-1.9,5.8c2.1,0,3.3-0.3,4-0.7C287.2,45,287.2,43.7,287,42.2z M287,42.2c-0.6-0.2-1.3-0.5-2-1.1
		c0,2.4-1.2,4.5-1.9,5.8c2.1,0,3.3-0.3,4-0.7C287.2,45,287.2,43.7,287,42.2z M259.9,30c0.2,0.2,0.4,0.4,0.7,0.6
		c0.5,0.4,1.9,1.4,3.8,2.5c0.6-0.1,2.5-0.7,5-3.2C266.1,30.8,261.3,30.2,259.9,30z M247,42.2c-0.6-0.2-1.3-0.5-2-1.1
		c0,2.4-1.2,4.5-2,5.8c2.1,0,3.3-0.3,4-0.7C247.2,45,247.2,43.7,247,42.2z M272.9,43.5c-4.2-0.4-6-1.3-7.8-2.2
		c-10.8,0.1-14.1-2.9-15.5-3.6c-2-0.9-4.3-4.1-5.1-6.9c0-0.1,0-0.2-0.1-0.2c-0.6-2.2-0.2-4.1,2.1-4.6c5.3-1.1,9.5,5.7,8.7,8.6
		c-0.5-1.9-1.7-3.4-4.4-5.4c-2.1-1.5-5.9-1.4-5.4,1.1c0,0.1,0,0.1,0,0.2c0.2,0.6,0.6,1.4,1.4,2.3c4.5,5.3,10.5,3.4,12.9,2.7
		c-2.1,2.4-4.2,2.2-6.2,2.1c4.9,2.4,9.1,0.5,11.2-0.9c-0.3,1-0.9,1.5-2,2.5c2.1,0,6.1-0.1,9.3-1.2c-3.8-0.1-11.7-4.5-15.2-7.8
		c-3.6-3.5-3.7-4.4-8.5-7.2c-0.3-9.8-6.7-8.8-8.7-7.3c-1.6,1.3-3.7,2.8-3.7,2.8c2.8,1.9,4.3,2.9,4.5,6.6c0.7,14.7,6.2,14.1,8.8,15.7
		c0.2,7.9-1.8,10-3.3,12.6c4.8-1.6,5.2-4.6,6.3-6.9c1,4.8,2.5,5.9,4.9,7.1c-0.6-1.2-2.9-8.9-1.8-12.1c2.1,0.4,9.7,7.3,12.5,12.1
		c0.6-6-2.1-7.4-3.2-9.1C265.7,45.3,270.8,45.7,272.9,43.5z M240.2,19c0,0-1-0.7-1.5-0.5c0,0,0-0.1,0.1-0.2c0.1-0.1,0.3-0.1,0.6-0.3
		c0.1-0.1,0.2-0.1,0.2-0.2c0.7,0.4,2.2,0.8,3,0.2c-1,0.2-2-0.4-2.4-0.7c1.3-0.8,3-1.1,4.4,0.8c-0.6,0.4-0.8,0.5-1.3,0.7
		C243,19.1,241.8,19.9,240.2,19z M219.2,30c0.2,0.2,0.4,0.4,0.7,0.6c0.5,0.4,1.9,1.4,3.8,2.5c0.6-0.1,2.5-0.7,5-3.2
		C225.3,30.8,220.6,30.2,219.2,30z M232.1,43.5c-4.2-0.4-6-1.3-7.8-2.2c-10.8,0.1-14.1-2.9-15.4-3.6c-1.9-0.9-4.1-3.8-5-6.5
		c0-0.1-0.1-0.2-0.1-0.3c0-0.1,0-0.2-0.1-0.2c-0.6-2.2-0.2-4.1,2.1-4.6c5.3-1.1,9.5,5.7,8.7,8.6c-0.5-1.9-1.7-3.4-4.4-5.4
		c-2.1-1.5-5.9-1.4-5.4,1.1c0,0.1,0,0.1,0,0.2c0,0.1,0.1,0.2,0.1,0.2c0.2,0.6,0.6,1.2,1.3,2c4.5,5.3,10.5,3.4,12.9,2.7
		c-2.1,2.4-4.1,2.2-6.2,2.1c4.9,2.4,9.1,0.5,11.2-0.9c-0.3,1-0.9,1.5-2,2.5c2.1,0,6.1-0.1,9.3-1.2c-3.8-0.1-11.7-4.4-15.2-7.8
		c-3.6-3.5-3.7-4.4-8.5-7.2c-0.3-9.8-6.7-8.8-8.7-7.3c-1.6,1.3-3.7,2.8-3.7,2.8c2.8,1.9,4.3,2.9,4.5,6.6c0.7,14.7,6.2,14.1,8.8,15.7
		c0.2,7.9-1.8,10-3.3,12.6c4.8-1.6,5.2-4.6,6.3-6.9c1,4.8,2.5,5.9,4.9,7.1c-0.6-1.2-3-8.9-1.8-12.1c2.1,0.4,9.7,7.3,12.5,12.1
		c0.6-6-2.1-7.4-3.2-9.1C225,45.3,230.1,45.7,232.1,43.5z M199.5,19c0,0-1.1-0.7-1.5-0.5c0,0-0.1-0.1,0.1-0.2
		c0.1-0.1,0.3-0.1,0.6-0.3c0.1-0.1,0.2-0.1,0.2-0.2c0.7,0.4,2.2,0.8,3,0.2c-1,0.2-2-0.4-2.4-0.7c1.3-0.8,3-1.1,4.4,0.8
		c-0.6,0.4-0.8,0.5-1.3,0.7C202.3,19.1,201,19.9,199.5,19z M232.1,43.5c-4.2-0.4-6-1.3-7.8-2.2c-10.8,0.1-14.1-2.9-15.4-3.6
		c-1.9-0.9-4.1-3.8-5-6.5c0-0.1-0.1-0.2-0.1-0.3c0-0.1,0-0.2-0.1-0.2c-0.6-2.2-0.2-4.1,2.1-4.6c5.3-1.1,9.5,5.7,8.7,8.6
		c-0.5-1.9-1.7-3.4-4.4-5.4c-2.1-1.5-5.9-1.4-5.4,1.1c0,0.1,0,0.1,0,0.2c0,0.1,0.1,0.2,0.1,0.2c0.2,0.6,0.6,1.2,1.3,2
		c4.5,5.3,10.5,3.4,12.9,2.7c-2.1,2.4-4.1,2.2-6.2,2.1c4.9,2.4,9.1,0.5,11.2-0.9c-0.3,1-0.9,1.5-2,2.5c2.1,0,6.1-0.1,9.3-1.2
		c-3.8-0.1-11.7-4.4-15.2-7.8c-3.6-3.5-3.7-4.4-8.5-7.2c-0.3-9.8-6.7-8.8-8.7-7.3c-1.6,1.3-3.7,2.8-3.7,2.8c2.8,1.9,4.3,2.9,4.5,6.6
		c0.7,14.7,6.2,14.1,8.8,15.7c0.2,7.9-1.8,10-3.3,12.6c4.8-1.6,5.2-4.6,6.3-6.9c1,4.8,2.5,5.9,4.9,7.1c-0.6-1.2-3-8.9-1.8-12.1
		c2.1,0.4,9.7,7.3,12.5,12.1c0.6-6-2.1-7.4-3.2-9.1C225,45.3,230.1,45.7,232.1,43.5z M199.5,19c0,0-1.1-0.7-1.5-0.5
		c0,0-0.1-0.1,0.1-0.2c0.1-0.1,0.3-0.1,0.6-0.3c0.1-0.1,0.2-0.1,0.2-0.2c0.7,0.4,2.2,0.8,3,0.2c-1,0.2-2-0.4-2.4-0.7
		c1.3-0.8,3-1.1,4.4,0.8c-0.6,0.4-0.8,0.5-1.3,0.7C202.3,19.1,201,19.9,199.5,19z M219.2,30c0.2,0.2,0.4,0.4,0.7,0.6
		c0.5,0.4,1.9,1.4,3.8,2.5c0.6-0.1,2.5-0.7,5-3.2C225.3,30.8,220.6,30.2,219.2,30z M272.9,43.5c-4.2-0.4-6-1.3-7.8-2.2
		c-10.8,0.1-14.1-2.9-15.5-3.6c-2-0.9-4.3-4.1-5.1-6.9c0-0.1,0-0.2-0.1-0.2c-0.6-2.2-0.2-4.1,2.1-4.6c5.3-1.1,9.5,5.7,8.7,8.6
		c-0.5-1.9-1.7-3.4-4.4-5.4c-2.1-1.5-5.9-1.4-5.4,1.1c0,0.1,0,0.1,0,0.2c0.2,0.6,0.6,1.4,1.4,2.3c4.5,5.3,10.5,3.4,12.9,2.7
		c-2.1,2.4-4.2,2.2-6.2,2.1c4.9,2.4,9.1,0.5,11.2-0.9c-0.3,1-0.9,1.5-2,2.5c2.1,0,6.1-0.1,9.3-1.2c-3.8-0.1-11.7-4.5-15.2-7.8
		c-3.6-3.5-3.7-4.4-8.5-7.2c-0.3-9.8-6.7-8.8-8.7-7.3c-1.6,1.3-3.7,2.8-3.7,2.8c2.8,1.9,4.3,2.9,4.5,6.6c0.7,14.7,6.2,14.1,8.8,15.7
		c0.2,7.9-1.8,10-3.3,12.6c4.8-1.6,5.2-4.6,6.3-6.9c1,4.8,2.5,5.9,4.9,7.1c-0.6-1.2-2.9-8.9-1.8-12.1c2.1,0.4,9.7,7.3,12.5,12.1
		c0.6-6-2.1-7.4-3.2-9.1C265.7,45.3,270.8,45.7,272.9,43.5z M240.2,19c0,0-1-0.7-1.5-0.5c0,0,0-0.1,0.1-0.2c0.1-0.1,0.3-0.1,0.6-0.3
		c0.1-0.1,0.2-0.1,0.2-0.2c0.7,0.4,2.2,0.8,3,0.2c-1,0.2-2-0.4-2.4-0.7c1.3-0.8,3-1.1,4.4,0.8c-0.6,0.4-0.8,0.5-1.3,0.7
		C243,19.1,241.8,19.9,240.2,19z M247,42.2c-0.6-0.2-1.3-0.5-2-1.1c0,2.4-1.2,4.5-2,5.8c2.1,0,3.3-0.3,4-0.7
		C247.2,45,247.2,43.7,247,42.2z M259.9,30c0.2,0.2,0.4,0.4,0.7,0.6c0.5,0.4,1.9,1.4,3.8,2.5c0.6-0.1,2.5-0.7,5-3.2
		C266.1,30.8,261.3,30.2,259.9,30z M259.9,30c0.2,0.2,0.4,0.4,0.7,0.6c0.5,0.4,1.9,1.4,3.8,2.5c0.6-0.1,2.5-0.7,5-3.2
		C266.1,30.8,261.3,30.2,259.9,30z M272.9,43.5c-4.2-0.4-6-1.3-7.8-2.2c-10.8,0.1-14.1-2.9-15.5-3.6c-2-0.9-4.3-4.1-5.1-6.9
		c0-0.1,0-0.2-0.1-0.2c-0.6-2.2-0.2-4.1,2.1-4.6c5.3-1.1,9.5,5.7,8.7,8.6c-0.5-1.9-1.7-3.4-4.4-5.4c-2.1-1.5-5.9-1.4-5.4,1.1
		c0,0.1,0,0.1,0,0.2c0.2,0.6,0.6,1.4,1.4,2.3c4.5,5.3,10.5,3.4,12.9,2.7c-2.1,2.4-4.2,2.2-6.2,2.1c4.9,2.4,9.1,0.5,11.2-0.9
		c-0.3,1-0.9,1.5-2,2.5c2.1,0,6.1-0.1,9.3-1.2c-3.8-0.1-11.7-4.5-15.2-7.8c-3.6-3.5-3.7-4.4-8.5-7.2c-0.3-9.8-6.7-8.8-8.7-7.3
		c-1.6,1.3-3.7,2.8-3.7,2.8c2.8,1.9,4.3,2.9,4.5,6.6c0.7,14.7,6.2,14.1,8.8,15.7c0.2,7.9-1.8,10-3.3,12.6c4.8-1.6,5.2-4.6,6.3-6.9
		c1,4.8,2.5,5.9,4.9,7.1c-0.6-1.2-2.9-8.9-1.8-12.1c2.1,0.4,9.7,7.3,12.5,12.1c0.6-6-2.1-7.4-3.2-9.1
		C265.7,45.3,270.8,45.7,272.9,43.5z M240.2,19c0,0-1-0.7-1.5-0.5c0,0,0-0.1,0.1-0.2c0.1-0.1,0.3-0.1,0.6-0.3
		c0.1-0.1,0.2-0.1,0.2-0.2c0.7,0.4,2.2,0.8,3,0.2c-1,0.2-2-0.4-2.4-0.7c1.3-0.8,3-1.1,4.4,0.8c-0.6,0.4-0.8,0.5-1.3,0.7
		C243,19.1,241.8,19.9,240.2,19z M247,42.2c-0.6-0.2-1.3-0.5-2-1.1c0,2.4-1.2,4.5-2,5.8c2.1,0,3.3-0.3,4-0.7
		C247.2,45,247.2,43.7,247,42.2z M219.2,30c0.2,0.2,0.4,0.4,0.7,0.6c0.5,0.4,1.9,1.4,3.8,2.5c0.6-0.1,2.5-0.7,5-3.2
		C225.3,30.8,220.6,30.2,219.2,30z M232.1,43.5c-4.2-0.4-6-1.3-7.8-2.2c-10.8,0.1-14.1-2.9-15.4-3.6c-1.9-0.9-4.1-3.8-5-6.5
		c0-0.1-0.1-0.2-0.1-0.3c0-0.1,0-0.2-0.1-0.2c-0.6-2.2-0.2-4.1,2.1-4.6c5.3-1.1,9.5,5.7,8.7,8.6c-0.5-1.9-1.7-3.4-4.4-5.4
		c-2.1-1.5-5.9-1.4-5.4,1.1c0,0.1,0,0.1,0,0.2c0,0.1,0.1,0.2,0.1,0.2c0.2,0.6,0.6,1.2,1.3,2c4.5,5.3,10.5,3.4,12.9,2.7
		c-2.1,2.4-4.1,2.2-6.2,2.1c4.9,2.4,9.1,0.5,11.2-0.9c-0.3,1-0.9,1.5-2,2.5c2.1,0,6.1-0.1,9.3-1.2c-3.8-0.1-11.7-4.4-15.2-7.8
		c-3.6-3.5-3.7-4.4-8.5-7.2c-0.3-9.8-6.7-8.8-8.7-7.3c-1.6,1.3-3.7,2.8-3.7,2.8c2.8,1.9,4.3,2.9,4.5,6.6c0.7,14.7,6.2,14.1,8.8,15.7
		c0.2,7.9-1.8,10-3.3,12.6c4.8-1.6,5.2-4.6,6.3-6.9c1,4.8,2.5,5.9,4.9,7.1c-0.6-1.2-3-8.9-1.8-12.1c2.1,0.4,9.7,7.3,12.5,12.1
		c0.6-6-2.1-7.4-3.2-9.1C225,45.3,230.1,45.7,232.1,43.5z M199.5,19c0,0-1.1-0.7-1.5-0.5c0,0-0.1-0.1,0.1-0.2
		c0.1-0.1,0.3-0.1,0.6-0.3c0.1-0.1,0.2-0.1,0.2-0.2c0.7,0.4,2.2,0.8,3,0.2c-1,0.2-2-0.4-2.4-0.7c1.3-0.8,3-1.1,4.4,0.8
		c-0.6,0.4-0.8,0.5-1.3,0.7C202.3,19.1,201,19.9,199.5,19z M232.1,43.5c-4.2-0.4-6-1.3-7.8-2.2c-10.8,0.1-14.1-2.9-15.4-3.6
		c-1.9-0.9-4.1-3.8-5-6.5c0-0.1-0.1-0.2-0.1-0.3c0-0.1,0-0.2-0.1-0.2c-0.6-2.2-0.2-4.1,2.1-4.6c5.3-1.1,9.5,5.7,8.7,8.6
		c-0.5-1.9-1.7-3.4-4.4-5.4c-2.1-1.5-5.9-1.4-5.4,1.1c0,0.1,0,0.1,0,0.2c0,0.1,0.1,0.2,0.1,0.2c0.2,0.6,0.6,1.2,1.3,2
		c4.5,5.3,10.5,3.4,12.9,2.7c-2.1,2.4-4.1,2.2-6.2,2.1c4.9,2.4,9.1,0.5,11.2-0.9c-0.3,1-0.9,1.5-2,2.5c2.1,0,6.1-0.1,9.3-1.2
		c-3.8-0.1-11.7-4.4-15.2-7.8c-3.6-3.5-3.7-4.4-8.5-7.2c-0.3-9.8-6.7-8.8-8.7-7.3c-1.6,1.3-3.7,2.8-3.7,2.8c2.8,1.9,4.3,2.9,4.5,6.6
		c0.7,14.7,6.2,14.1,8.8,15.7c0.2,7.9-1.8,10-3.3,12.6c4.8-1.6,5.2-4.6,6.3-6.9c1,4.8,2.5,5.9,4.9,7.1c-0.6-1.2-3-8.9-1.8-12.1
		c2.1,0.4,9.7,7.3,12.5,12.1c0.6-6-2.1-7.4-3.2-9.1C225,45.3,230.1,45.7,232.1,43.5z M199.5,19c0,0-1.1-0.7-1.5-0.5
		c0,0-0.1-0.1,0.1-0.2c0.1-0.1,0.3-0.1,0.6-0.3c0.1-0.1,0.2-0.1,0.2-0.2c0.7,0.4,2.2,0.8,3,0.2c-1,0.2-2-0.4-2.4-0.7
		c1.3-0.8,3-1.1,4.4,0.8c-0.6,0.4-0.8,0.5-1.3,0.7C202.3,19.1,201,19.9,199.5,19z M219.2,30c0.2,0.2,0.4,0.4,0.7,0.6
		c0.5,0.4,1.9,1.4,3.8,2.5c0.6-0.1,2.5-0.7,5-3.2C225.3,30.8,220.6,30.2,219.2,30z M247,42.2c-0.6-0.2-1.3-0.5-2-1.1
		c0,2.4-1.2,4.5-2,5.8c2.1,0,3.3-0.3,4-0.7C247.2,45,247.2,43.7,247,42.2z M247,42.2c-0.6-0.2-1.3-0.5-2-1.1c0,2.4-1.2,4.5-2,5.8
		c2.1,0,3.3-0.3,4-0.7C247.2,45,247.2,43.7,247,42.2z M219.2,30c0.2,0.2,0.4,0.4,0.7,0.6c0.5,0.4,1.9,1.4,3.8,2.5
		c0.6-0.1,2.5-0.7,5-3.2C225.3,30.8,220.6,30.2,219.2,30z M232.1,43.5c-4.2-0.4-6-1.3-7.8-2.2c-10.8,0.1-14.1-2.9-15.4-3.6
		c-1.9-0.9-4.1-3.8-5-6.5c0-0.1-0.1-0.2-0.1-0.3c0-0.1,0-0.2-0.1-0.2c-0.6-2.2-0.2-4.1,2.1-4.6c5.3-1.1,9.5,5.7,8.7,8.6
		c-0.5-1.9-1.7-3.4-4.4-5.4c-2.1-1.5-5.9-1.4-5.4,1.1c0,0.1,0,0.1,0,0.2c0,0.1,0.1,0.2,0.1,0.2c0.2,0.6,0.6,1.2,1.3,2
		c4.5,5.3,10.5,3.4,12.9,2.7c-2.1,2.4-4.1,2.2-6.2,2.1c4.9,2.4,9.1,0.5,11.2-0.9c-0.3,1-0.9,1.5-2,2.5c2.1,0,6.1-0.1,9.3-1.2
		c-3.8-0.1-11.7-4.4-15.2-7.8c-3.6-3.5-3.7-4.4-8.5-7.2c-0.3-9.8-6.7-8.8-8.7-7.3c-1.6,1.3-3.7,2.8-3.7,2.8c2.8,1.9,4.3,2.9,4.5,6.6
		c0.7,14.7,6.2,14.1,8.8,15.7c0.2,7.9-1.8,10-3.3,12.6c4.8-1.6,5.2-4.6,6.3-6.9c1,4.8,2.5,5.9,4.9,7.1c-0.6-1.2-3-8.9-1.8-12.1
		c2.1,0.4,9.7,7.3,12.5,12.1c0.6-6-2.1-7.4-3.2-9.1C225,45.3,230.1,45.7,232.1,43.5z M199.5,19c0,0-1.1-0.7-1.5-0.5
		c0,0-0.1-0.1,0.1-0.2c0.1-0.1,0.3-0.1,0.6-0.3c0.1-0.1,0.2-0.1,0.2-0.2c0.7,0.4,2.2,0.8,3,0.2c-1,0.2-2-0.4-2.4-0.7
		c1.3-0.8,3-1.1,4.4,0.8c-0.6,0.4-0.8,0.5-1.3,0.7C202.3,19.1,201,19.9,199.5,19z M232.1,43.5c-4.2-0.4-6-1.3-7.8-2.2
		c-10.8,0.1-14.1-2.9-15.4-3.6c-1.9-0.9-4.1-3.8-5-6.5c0-0.1-0.1-0.2-0.1-0.3c0-0.1,0-0.2-0.1-0.2c-0.6-2.2-0.2-4.1,2.1-4.6
		c5.3-1.1,9.5,5.7,8.7,8.6c-0.5-1.9-1.7-3.4-4.4-5.4c-2.1-1.5-5.9-1.4-5.4,1.1c0,0.1,0,0.1,0,0.2c0,0.1,0.1,0.2,0.1,0.2
		c0.2,0.6,0.6,1.2,1.3,2c4.5,5.3,10.5,3.4,12.9,2.7c-2.1,2.4-4.1,2.2-6.2,2.1c4.9,2.4,9.1,0.5,11.2-0.9c-0.3,1-0.9,1.5-2,2.5
		c2.1,0,6.1-0.1,9.3-1.2c-3.8-0.1-11.7-4.4-15.2-7.8c-3.6-3.5-3.7-4.4-8.5-7.2c-0.3-9.8-6.7-8.8-8.7-7.3c-1.6,1.3-3.7,2.8-3.7,2.8
		c2.8,1.9,4.3,2.9,4.5,6.6c0.7,14.7,6.2,14.1,8.8,15.7c0.2,7.9-1.8,10-3.3,12.6c4.8-1.6,5.2-4.6,6.3-6.9c1,4.8,2.5,5.9,4.9,7.1
		c-0.6-1.2-3-8.9-1.8-12.1c2.1,0.4,9.7,7.3,12.5,12.1c0.6-6-2.1-7.4-3.2-9.1C225,45.3,230.1,45.7,232.1,43.5z M199.5,19
		c0,0-1.1-0.7-1.5-0.5c0,0-0.1-0.1,0.1-0.2c0.1-0.1,0.3-0.1,0.6-0.3c0.1-0.1,0.2-0.1,0.2-0.2c0.7,0.4,2.2,0.8,3,0.2
		c-1,0.2-2-0.4-2.4-0.7c1.3-0.8,3-1.1,4.4,0.8c-0.6,0.4-0.8,0.5-1.3,0.7C202.3,19.1,201,19.9,199.5,19z M219.2,30
		c0.2,0.2,0.4,0.4,0.7,0.6c0.5,0.4,1.9,1.4,3.8,2.5c0.6-0.1,2.5-0.7,5-3.2C225.3,30.8,220.6,30.2,219.2,30z M219.2,30
		c0.2,0.2,0.4,0.4,0.7,0.6c0.5,0.4,1.9,1.4,3.8,2.5c0.6-0.1,2.5-0.7,5-3.2C225.3,30.8,220.6,30.2,219.2,30z M232.1,43.5
		c-4.2-0.4-6-1.3-7.8-2.2c-10.8,0.1-14.1-2.9-15.4-3.6c-1.9-0.9-4.1-3.8-5-6.5c0-0.1-0.1-0.2-0.1-0.3c0-0.1,0-0.2-0.1-0.2
		c-0.6-2.2-0.2-4.1,2.1-4.6c5.3-1.1,9.5,5.7,8.7,8.6c-0.5-1.9-1.7-3.4-4.4-5.4c-2.1-1.5-5.9-1.4-5.4,1.1c0,0.1,0,0.1,0,0.2
		c0,0.1,0.1,0.2,0.1,0.2c0.2,0.6,0.6,1.2,1.3,2c4.5,5.3,10.5,3.4,12.9,2.7c-2.1,2.4-4.1,2.2-6.2,2.1c4.9,2.4,9.1,0.5,11.2-0.9
		c-0.3,1-0.9,1.5-2,2.5c2.1,0,6.1-0.1,9.3-1.2c-3.8-0.1-11.7-4.4-15.2-7.8c-3.6-3.5-3.7-4.4-8.5-7.2c-0.3-9.8-6.7-8.8-8.7-7.3
		c-1.6,1.3-3.7,2.8-3.7,2.8c2.8,1.9,4.3,2.9,4.5,6.6c0.7,14.7,6.2,14.1,8.8,15.7c0.2,7.9-1.8,10-3.3,12.6c4.8-1.6,5.2-4.6,6.3-6.9
		c1,4.8,2.5,5.9,4.9,7.1c-0.6-1.2-3-8.9-1.8-12.1c2.1,0.4,9.7,7.3,12.5,12.1c0.6-6-2.1-7.4-3.2-9.1C225,45.3,230.1,45.7,232.1,43.5z
		 M199.5,19c0,0-1.1-0.7-1.5-0.5c0,0-0.1-0.1,0.1-0.2c0.1-0.1,0.3-0.1,0.6-0.3c0.1-0.1,0.2-0.1,0.2-0.2c0.7,0.4,2.2,0.8,3,0.2
		c-1,0.2-2-0.4-2.4-0.7c1.3-0.8,3-1.1,4.4,0.8c-0.6,0.4-0.8,0.5-1.3,0.7C202.3,19.1,201,19.9,199.5,19z M232.1,43.5
		c-4.2-0.4-6-1.3-7.8-2.2c-10.8,0.1-14.1-2.9-15.4-3.6c-1.9-0.9-4.1-3.8-5-6.5c0-0.1-0.1-0.2-0.1-0.3c0-0.1,0-0.2-0.1-0.2
		c-0.6-2.2-0.2-4.1,2.1-4.6c5.3-1.1,9.5,5.7,8.7,8.6c-0.5-1.9-1.7-3.4-4.4-5.4c-2.1-1.5-5.9-1.4-5.4,1.1c0,0.1,0,0.1,0,0.2
		c0,0.1,0.1,0.2,0.1,0.2c0.2,0.6,0.6,1.2,1.3,2c4.5,5.3,10.5,3.4,12.9,2.7c-2.1,2.4-4.1,2.2-6.2,2.1c4.9,2.4,9.1,0.5,11.2-0.9
		c-0.3,1-0.9,1.5-2,2.5c2.1,0,6.1-0.1,9.3-1.2c-3.8-0.1-11.7-4.4-15.2-7.8c-3.6-3.5-3.7-4.4-8.5-7.2c-0.3-9.8-6.7-8.8-8.7-7.3
		c-1.6,1.3-3.7,2.8-3.7,2.8c2.8,1.9,4.3,2.9,4.5,6.6c0.7,14.7,6.2,14.1,8.8,15.7c0.2,7.9-1.8,10-3.3,12.6c4.8-1.6,5.2-4.6,6.3-6.9
		c1,4.8,2.5,5.9,4.9,7.1c-0.6-1.2-3-8.9-1.8-12.1c2.1,0.4,9.7,7.3,12.5,12.1c0.6-6-2.1-7.4-3.2-9.1C225,45.3,230.1,45.7,232.1,43.5z
		 M199.5,19c0,0-1.1-0.7-1.5-0.5c0,0-0.1-0.1,0.1-0.2c0.1-0.1,0.3-0.1,0.6-0.3c0.1-0.1,0.2-0.1,0.2-0.2c0.7,0.4,2.2,0.8,3,0.2
		c-1,0.2-2-0.4-2.4-0.7c1.3-0.8,3-1.1,4.4,0.8c-0.6,0.4-0.8,0.5-1.3,0.7C202.3,19.1,201,19.9,199.5,19z M219.2,30
		c0.2,0.2,0.4,0.4,0.7,0.6c0.5,0.4,1.9,1.4,3.8,2.5c0.6-0.1,2.5-0.7,5-3.2C225.3,30.8,220.6,30.2,219.2,30z M219.2,30
		c0.2,0.2,0.4,0.4,0.7,0.6c0.5,0.4,1.9,1.4,3.8,2.5c0.6-0.1,2.5-0.7,5-3.2C225.3,30.8,220.6,30.2,219.2,30z M232.1,43.5
		c-4.2-0.4-6-1.3-7.8-2.2c-10.8,0.1-14.1-2.9-15.4-3.6c-1.9-0.9-4.1-3.8-5-6.5c0-0.1-0.1-0.2-0.1-0.3c0-0.1,0-0.2-0.1-0.2
		c-0.6-2.2-0.2-4.1,2.1-4.6c5.3-1.1,9.5,5.7,8.7,8.6c-0.5-1.9-1.7-3.4-4.4-5.4c-2.1-1.5-5.9-1.4-5.4,1.1c0,0.1,0,0.1,0,0.2
		c0,0.1,0.1,0.2,0.1,0.2c0.2,0.6,0.6,1.2,1.3,2c4.5,5.3,10.5,3.4,12.9,2.7c-2.1,2.4-4.1,2.2-6.2,2.1c4.9,2.4,9.1,0.5,11.2-0.9
		c-0.3,1-0.9,1.5-2,2.5c2.1,0,6.1-0.1,9.3-1.2c-3.8-0.1-11.7-4.4-15.2-7.8c-3.6-3.5-3.7-4.4-8.5-7.2c-0.3-9.8-6.7-8.8-8.7-7.3
		c-1.6,1.3-3.7,2.8-3.7,2.8c2.8,1.9,4.3,2.9,4.5,6.6c0.7,14.7,6.2,14.1,8.8,15.7c0.2,7.9-1.8,10-3.3,12.6c4.8-1.6,5.2-4.6,6.3-6.9
		c1,4.8,2.5,5.9,4.9,7.1c-0.6-1.2-3-8.9-1.8-12.1c2.1,0.4,9.7,7.3,12.5,12.1c0.6-6-2.1-7.4-3.2-9.1C225,45.3,230.1,45.7,232.1,43.5z
		 M199.5,19c0,0-1.1-0.7-1.5-0.5c0,0-0.1-0.1,0.1-0.2c0.1-0.1,0.3-0.1,0.6-0.3c0.1-0.1,0.2-0.1,0.2-0.2c0.7,0.4,2.2,0.8,3,0.2
		c-1,0.2-2-0.4-2.4-0.7c1.3-0.8,3-1.1,4.4,0.8c-0.6,0.4-0.8,0.5-1.3,0.7C202.3,19.1,201,19.9,199.5,19z"/>
	<line fill="none" x1="323.6" y1="66.2" x2="185.5" y2="66.2"/>
	<polygon fill="#FFFFFF" points="185.5,67 185.5,65.5 323.6,65.5 323.6,67 	"/>
	<line fill="none" x1="249.7" y1="75.1" x2="185.5" y2="75.1"/>
	<rect x="185.5" y="74.3" fill="#FFFFFF" width="50.1" height="1.5"/>
	<line fill="none" x1="322.9" y1="75.1" x2="258.6" y2="75.1"/>
	<polygon fill="#FFFFFF" points="272.1,75.9 272.1,74.3 322.9,74.3 322.9,75.9 	"/>
	<line fill="none" x1="323.6" y1="83.9" x2="185.5" y2="83.9"/>
	<polyline fill="#FFFFFF" points="210.9,84.7 185.5,84.7 185.5,83.2 210.8,83.2 	"/>
	<polyline fill="#FFFFFF" points="297.6,83.2 323.6,83.2 323.6,84.7 297.6,84.7 	"/>
	<line fill="none" x1="323.6" y1="92.8" x2="186" y2="92.9"/>
	<polyline fill="#FFFFFF" points="204.5,93.6 186,93.7 186,92.2 204.5,92.1 	"/>
	<polyline fill="#FFFFFF" points="304.1,92.1 323.6,92 323.6,93.5 304.1,93.6 	"/>
	<line fill="none" x1="321.6" y1="110.5" x2="187.6" y2="110.5"/>
	<polyline fill="#FFFFFF" points="205.9,111.2 187.5,111.2 187.5,109.7 206,109.7 	"/>
	<polyline fill="#FFFFFF" points="302.4,109.7 321.6,109.7 321.6,111.2 302.4,111.2 	"/>
	<line fill="none" x1="319.5" y1="119.3" x2="190.4" y2="119.3"/>
	<polyline fill="#FFFFFF" points="208,120.1 190.4,120.1 190.4,118.6 208,118.6 	"/>
	<polyline fill="#FFFFFF" points="301,118.6 319.5,118.6 319.5,120.1 301,120.1 	"/>
	<line fill="none" x1="315.5" y1="128.2" x2="194.9" y2="128.2"/>
	<polyline fill="#FFFFFF" points="209.3,128.9 194.9,128.9 194.9,127.4 209.3,127.4 	"/>
	<polyline fill="#FFFFFF" points="300.5,127.4 315.5,127.4 315.5,128.9 300.5,128.9 	"/>
	<line fill="none" x1="304" y1="145.9" x2="205.1" y2="145.9"/>
	<polygon fill="#FFFFFF" points="205.1,146.6 205.1,145.1 304,145.1 304,146.6 	"/>
	<line fill="none" x1="296.4" y1="154.7" x2="214.1" y2="154.7"/>
	<polygon fill="#FFFFFF" points="214.1,155.5 214.1,153.9 296.4,153.9 296.4,155.5 	"/>
	<line fill="none" x1="284.4" y1="163.6" x2="226.2" y2="163.6"/>
	<polygon fill="#FFFFFF" points="226.1,164.3 226.1,162.8 284.4,162.8 284.4,164.3 	"/>
	<line fill="none" x1="323.6" y1="101.6" x2="185.3" y2="101.6"/>
	<polyline fill="#FFFFFF" points="205.4,102.4 185.3,102.4 185.3,100.9 205.4,100.9 	"/>
	<polyline fill="#FFFFFF" points="302.9,100.9 323.6,100.9 323.6,102.4 302.9,102.4 	"/>
	<g>
		<path fill="#FFFDFD" d="M323.2,1.1H183.5v94.1c0,49.7,46.6,81.4,71,81.4c24.3,0,70.7-31.7,70.7-81.4V1.1H323.2z M321.2,5.1v90.1
			c0,47.3-43.8,77.5-66.7,77.5c-23,0-67-30.2-67-77.5V5.1H321.2z"/>
		<polygon fill="#FFFDFD" points="187.3,67.3 187.3,63.4 325,63.4 325,67.3 		"/>
	</g>
	<path fill="#FFFFFF" d="M303,89.3c-2.9-2.8-6-7.3-6.1-10.5c-5,6.2-13.3,2-18.5-2c-9.6-7.4-20.9-7.6-24.4,0.1
		c-3.6-7.5-13.9-7.4-23.4-0.1c-5.3,4.1-12.8,7.2-18.5,2c-0.1,3.3-3.2,7.7-6.1,10.5h-3.2l4.9,51.7h0.8v0h19.7
		c6.8,0,11.8-0.4,15.6-1.2c1.6,2.9,6,4.2,11.3,4.2c5.3,0,9.7-1.3,11.3-4.2c4,0.7,9.2,1.2,15.9,1.2h17.5l0,0h1.6l4.9-51.6L303,89.3
		L303,89.3z M255.6,81.2c0.2-0.8,0.7-2.5,2.2-3.9c0,0,0,0,0,0c4.7-3.9,12.7-2.1,21,3.4c7.4,5,13.1,3.5,16,1.2l-4.4,45.7
		c-3.9,0.8-9.3-1.4-14.5-4.8c-8.2-5.4-15.5-8.3-21.1-0.6L255.6,81.2z M230.3,80.8c6.4-4.3,11.4-6.1,15.3-5.6c1.6,0.4,3.5,2.4,3.7,4
		c0.2,1.7,4.1,42.2,4.1,42.2c-5.5-6.5-12.5-3.7-20.4,1.5c-5.1,3.4-10.6,5.5-14.5,4.8L214.3,82C217.2,84.3,222.9,85.7,230.3,80.8
		 M213.4,81.2C213.4,81.2,213.5,81.3,213.4,81.2L213.4,81.2C213.4,81.3,213.4,81.3,213.4,81.2 M214.8,123l-3.2-22.3
		c0-0.1-0.1-0.2-0.2-0.1c-0.1,0-0.2,0.1-0.2,0.2l1.4,18.9l-2.9-20.8c0-0.1-0.1-0.1-0.1-0.1c0.1,0,0.1-0.1,0.1-0.2l0-0.4
		c0-0.1-0.1-0.2-0.2-0.2c-0.1,0-0.2,0.1-0.2,0.2l0,0.4c0,0.1,0.1,0.1,0.1,0.1c-0.1,0-0.1,0.1-0.1,0.2l1.2,19.3l-2.8-22.6
		c0-0.1-0.1-0.2-0.2-0.1c-0.1,0-0.2,0.1-0.2,0.2l1.2,21.5l-2.4-24.9c2.3-1.9,5-5.2,6.4-8.2l4.6,41.8l-3.8-24.4
		c0-0.1-0.1-0.2-0.2-0.2c-0.1,0-0.2,0.1-0.2,0.2L214.8,123z M254.9,141.4c-3.5,0-6.6-0.9-7.9-2.5c4.9-1.6,6.7-4.1,7.1-7.1
		c0.6,2.9,2.9,5.4,8.1,7C261.3,140.5,258.5,141.4,254.9,141.4 M278.5,127.1c-4.2-2-8.5-3.2-10.9-2.4c-0.1,0-0.2,0.1-0.2,0.2
		c0,0.1,0.1,0.2,0.2,0.2c2.6-0.2,7.2,1.3,10.6,3.3c1.2,0.7,2.4,1.3,3.6,1.7c-1.3-0.3-2.5-0.6-3.5-1c-2.7-1.1-4.7-1.9-6.5-2.1
		c-0.1,0-0.2,0.1-0.2,0.1c0,0.1,0,0.2,0.1,0.2c1.9,0.6,4.2,2.1,6.6,3.2c1.3,0.6,2.6,1,4,1.3c-1.9-0.2-3.4-0.3-4.1-0.4
		c-2.2-0.3-4.2-0.6-5.9-0.9c-0.1,0-0.2,0.1-0.2,0.1c0,0.1,0.1,0.2,0.1,0.2c1.8,0.8,3.6,1.4,6.1,2.2c1.4,0.4,4,0.9,6.7,1.1
		c-2.5-0.1-5.1-0.2-7-0.4c-3-0.3-5.9-0.7-8.1-1.2c-0.1,0-0.2,0-0.2,0.1c0,0.1,0.1,0.2,0.1,0.2c2.1,1.1,4.9,2,8.2,2.5
		c1,0.1,2.2,0.3,3.5,0.4c-1.5,0-2.8,0-3.6-0.1c-4.2-0.4-8.6-1.8-11.5-2.9c-0.1,0-0.2,0-0.3,0c0,0.1,0,0.2,0.1,0.2
		c2.7,1.8,8.8,4.4,15.6,4.8c-15.3,0-24.8-3.8-27.6-9.3c-1.9,3.7-6.1,6.6-13.2,8.1c3-1,5.5-2.1,7-3.2c0.1-0.1,0.1-0.2,0.1-0.3
		c-0.1-0.1-0.2-0.1-0.3-0.1c-3.4,1.4-8.6,3.1-13.6,3.5c-1,0.1-2.5,0.1-4.3,0.1c1.5-0.2,2.9-0.3,4.2-0.5c3.9-0.6,7.2-1.7,9.7-3
		c0.1,0,0.2-0.1,0.2-0.2c0-0.1-0.1-0.2-0.2-0.2c-2.6,0.6-6.1,1.2-9.6,1.5c-2.2,0.2-5.2,0.4-8.2,0.5c3.2-0.3,6.3-0.9,7.9-1.3
		c2.9-0.9,5.1-1.7,7.2-2.6c0.1,0,0.2-0.1,0.2-0.2c0-0.1-0.1-0.2-0.2-0.2c-2.1,0.4-4.4,0.7-7,1.1c-0.8,0.1-2.7,0.3-4.9,0.5
		c1.6-0.4,3.3-0.9,4.7-1.6c2.8-1.3,5.5-3,7.8-3.7c0.2-0.1,0.2-0.4-0.1-0.4c-2.1,0.2-4.5,1.1-7.7,2.5c-1.1,0.5-2.6,0.9-4.1,1.2
		c1.4-0.6,2.9-1.2,4.3-2.1c4-2.3,9.3-4.1,12.5-3.9c0.1,0,0.2-0.1,0.2-0.2c0-0.1-0.1-0.2-0.2-0.2c-2.8-0.9-7.9,0.5-12.8,2.9
		c-7.9,3.8-14.8,3.2-15.9,1.6l0,0c1.2,1.3,8.1,0.8,15.9-2.9c10-4.8,14.5-6.3,20.7,2.1l0,0.1v0c6.2-8.4,10.8-7,20.8-2.2
		c8.1,3.9,12.9,4.2,15.3,2.8l0.4,0.1C289.1,129.2,284.2,129.8,278.5,127.1 M299.9,120.4l0.1-10.2c0-0.1-0.1-0.1-0.2-0.1
		c-0.1,0-0.2,0.1-0.2,0.1l-1.8,14.3l0.2-12.1c0-0.1,0-0.1-0.1-0.1c0.1,0,0.1-0.1,0.1-0.1l0-0.2c0-0.1-0.1-0.1-0.2-0.1
		c-0.1,0-0.2,0.1-0.2,0.1l0,0.2c0,0.1,0.1,0.1,0.1,0.1c-0.1,0-0.1,0.1-0.1,0.1l-1.9,13.3l0.5-12c0-0.1-0.1-0.1-0.2-0.1
		c-0.1,0-0.2,0.1-0.2,0.1l-2.2,15l0.7-14.4c0-0.1-0.1-0.1-0.2-0.1c-0.1,0-0.2,0.1-0.2,0.1l-2.1,10.8l4.5-41.2c1.3,3,4,6.2,6.2,8.1
		L299.9,120.4z"/>
</g>
</svg>
